<svg id="Layer_1" data-name="Layer 1" xmlns="http://www.w3.org/2000/svg" xmlns:xlink="http://www.w3.org/1999/xlink" viewBox="0 0 141.73 85.04"><defs><linearGradient id="linear-gradient" x1="50.66" y1="34.3" x2="91.08" y2="34.3" gradientUnits="userSpaceOnUse"><stop offset="0" stop-color="#2486bd"/><stop offset="1" stop-color="#9dc04f"/></linearGradient><linearGradient id="linear-gradient-2" x1="44.29" y1="50.12" x2="97.44" y2="50.12" xlink:href="#linear-gradient"/></defs><title>s</title><path d="M59.32,43A8.66,8.66,0,1,1,68,34.3,8.66,8.66,0,0,1,59.32,43Zm23.09,0a8.66,8.66,0,1,0-8.66-8.66A8.66,8.66,0,0,0,82.41,43Z" fill-rule="evenodd" fill="url(#linear-gradient)"/><path d="M70.88,54a15,15,0,0,0,26.56-9.61A3.52,3.52,0,0,0,94,40.85h0l-.36,0a3.51,3.51,0,0,0-3.22,3.51,8,8,0,0,1-15.91,0,3.51,3.51,0,0,0-3.23-3.51,2.31,2.31,0,0,0-.37,0h0a3.54,3.54,0,0,0-3.54,3.54,8,8,0,0,1-15.91,0,3.54,3.54,0,1,0-7.07,0A15,15,0,0,0,70.86,54m3.49-9.6" fill-rule="evenodd" fill="url(#linear-gradient-2)"/></svg>