<svg width="490" height="510" viewBox="0 0 490 510" fill="none" xmlns="http://www.w3.org/2000/svg">
<g id="Group">
<circle id="Oval" cx="99.5" cy="397.5" r="12.5" fill="black"/>
<circle id="Oval_2" cx="77" cy="403" r="9" fill="black"/>
<circle id="Oval_3" cx="95" cy="10" r="10" fill="black"/>
<circle id="Oval_4" cx="457" cy="127" r="10" fill="black"/>
<rect id="Rectangle" x="94" y="200" width="17" height="17" fill="black"/>
<rect id="Rectangle_2" x="36" y="19" width="117" height="2" fill="black"/>
<rect id="Rectangle_3" x="68" y="4" width="2" height="15" fill="black"/>
<rect id="Rectangle_4" x="119" y="4" width="2" height="15" fill="black"/>
<rect id="Rectangle_5" x="353" y="137" width="117" height="2" fill="black"/>
<rect id="Rectangle_6" x="384" y="122" width="2" height="15" fill="black"/>
<rect id="Rectangle_7" x="435" y="122" width="2" height="15" fill="black"/>
<rect id="Rectangle_8" x="44" y="216" width="117" height="2" fill="black"/>
<rect id="Rectangle_9" x="75" y="201" width="2" height="15" fill="black"/>
<rect id="Rectangle_10" x="126" y="201" width="2" height="15" fill="black"/>
<ellipse id="Oval_5" cx="249" cy="308" rx="47" ry="11" fill="#3F3D56"/>
<path id="Rectangle_11" d="M241.062 419.454L286.303 416.108L286.426 417.779L241.185 421.124L241.062 419.454Z" fill="black"/>
<path id="Rectangle_12" d="M210.559 411.81L211.367 410.342L228.122 419.558L227.315 421.026L210.559 411.81Z" fill="black"/>
<rect id="Rectangle_13" x="244" y="404" width="15" height="2" fill="black"/>
<path id="Path" d="M204.644 509L203 508.886L215.356 317L217 317.114L204.644 509Z" fill="black"/>
<path id="Path_2" d="M266.335 509L258 332.082L259.665 332L268 508.918L266.335 509Z" fill="black"/>
<path id="Rectangle_14" d="M281.341 316.474L283.011 316.336L298.929 509.029L297.258 509.167L281.341 316.474Z" fill="black"/>
<path id="Path_3" d="M229.75 509L228 508.96L233.25 332L235 332.04L229.75 509Z" fill="black"/>
<path id="Path_4" d="M222 398.345L210.831 405L180 364.824L196.485 355L222 398.345Z" fill="#FFB6B6"/>
<path id="Path_5" d="M231 407.553L195.509 429L195.243 428.542C190.725 420.758 193.246 410.711 200.875 406.1L200.876 406.099L222.552 393L231 407.553Z" fill="#2F2E41"/>
<path id="Path_6" d="M276 398.345L287.169 405L318 364.824L301.516 355L276 398.345Z" fill="#FFB6B6"/>
<path id="Path_7" d="M275.448 393L297.124 406.099L297.125 406.1C304.753 410.711 307.275 420.758 302.757 428.542L302.491 429L267 407.553L275.448 393Z" fill="#2F2E41"/>
<path id="Path_8" d="M283.851 246C283.851 246 247.544 271.597 212.204 248.499L211.651 264.601C211.651 264.601 135.952 296.738 148.378 321.843C160.805 346.949 186.917 373 186.917 373L201.16 361.259L185.242 321.004L228.541 302.643L266.289 302.833L318.925 324.158L293.791 361.897L315.94 368.807C315.94 368.807 368.722 320.166 357.411 306.328C348.345 295.237 294.077 270.369 294.077 270.369L283.851 246Z" fill="#2F2E41"/>
<path id="Path_9" d="M296.156 152.454L264.841 142.03L257.101 131H234.56L227.881 142.205L198.844 152.454C195.566 153.395 193.52 156.664 194.097 160.038L207.009 266.807L227.881 265.131C227.881 265.131 256 287.163 272.963 261.777L273.869 248.976L291.33 265.969L300.903 160.038C301.48 156.664 299.434 153.395 296.156 152.454Z" fill="#9558CA"/>
<path id="Path_10" d="M271.649 80.3979C262.364 64.7865 243.994 64.0589 243.994 64.0589C243.994 64.0589 226.093 61.7811 214.61 85.5576C203.907 107.719 189.135 121.619 212.232 126.806L216.404 113.886L218.987 127.768C222.276 128.004 225.575 128.06 228.87 127.936C253.604 127.142 277.161 128.169 276.402 119.337C275.394 107.596 280.583 95.4193 271.649 80.3979Z" fill="#2F2E41"/>
<circle id="Oval_6" cx="246.5" cy="102.5" r="24.5" fill="#FFB8B8"/>
<path id="Path_11" d="M269.14 77.5805L251.087 68L226.158 71.9195L221 95L233.839 94.4996L237.426 86.0203V94.3604L243.351 94.1292L246.789 80.6292L248.938 95L270 94.5646L269.14 77.5805Z" fill="#2F2E41"/>
<path id="Path_12" opacity="0.2" d="M209 176L228 250C228 250 219.133 185.251 209 176Z" fill="black"/>
<path id="Path_13" opacity="0.2" d="M265 250L284 176C273.867 185.251 265 250 265 250Z" fill="black"/>
<path id="Path_14" d="M269.531 315.064C271.569 313.982 273.026 312.047 273.509 309.78C273.993 307.513 273.453 305.148 272.036 303.32L289 256.65L276.015 250L260.617 302.247C257.657 304.904 257.14 309.368 259.414 312.638C261.688 315.908 266.035 316.95 269.531 315.064Z" fill="#FFB6B6"/>
<path id="Path_15" d="M285.387 171L266.076 254.276C265.689 256.066 266.817 257.834 268.614 258.254L287.211 260.911C288.137 261.127 289.111 260.947 289.896 260.416C290.682 259.885 291.206 259.052 291.342 258.119L297 171.364L285.387 171Z" fill="#9558CA"/>
<path id="Path_16" d="M225.469 316.064C223.431 314.982 221.974 313.047 221.491 310.78C221.008 308.513 221.547 306.148 222.964 304.32L206 257.649L218.986 251L234.383 303.247C237.343 305.904 237.86 310.368 235.586 313.638C233.312 316.908 228.965 317.95 225.469 316.064Z" fill="#FFB6B6"/>
<path id="Path_17" d="M209.025 173L227.925 256.276C228.305 258.066 227.2 259.834 225.442 260.254L207.24 262.911C206.334 263.127 205.38 262.947 204.612 262.416C203.843 261.885 203.329 261.052 203.197 260.119L196 173.364L209.025 173Z" fill="#9558CA"/>
<path id="Path_18" d="M489.162 510H0.837607C0.375009 510 0 509.552 0 509C0 508.448 0.375009 508 0.837607 508H489.162C489.625 508 490 508.448 490 509C490 509.552 489.625 510 489.162 510Z" fill="#E4E4E4"/>
<path id="Path_19" d="M420 422.892L420.631 422C431.456 429.542 439.353 446.318 444.102 471.861C446.272 483.792 447.575 495.862 448 507.979L446.902 508C446.889 507.327 445.288 440.509 420 422.892Z" fill="black"/>
<path id="Path_20" d="M422 470.903L422.649 470C434.269 477.959 434.976 506.757 435 507.978L433.869 508C433.864 507.706 433.151 478.541 422 470.903Z" fill="black"/>
<circle id="Oval_7" cx="414.5" cy="416.5" r="5.5" fill="black"/>
<circle id="Oval_8" cx="416.5" cy="464.5" r="5.5" fill="black"/>
<path id="Path_21" d="M440.97 415C444.728 423.042 443.185 432.438 437.03 439C433.272 430.958 434.815 421.562 440.97 415V415Z" fill="black"/>
<path id="Path_22" d="M408 434.649C416.551 432.569 425.557 435.585 431 442.351C422.449 444.431 413.443 441.415 408 434.649H408Z" fill="black"/>
<path id="Path_23" d="M411 478.432C416.949 477.046 423.213 479.056 427 483.568C421.051 484.954 414.787 482.944 411 478.432Z" fill="black"/>
</g>
</svg>
