<?xml version="1.0" encoding="UTF-8"?>
<svg width="665px" height="455px" viewBox="0 0 665 455" version="1.1" xmlns="http://www.w3.org/2000/svg" xmlns:xlink="http://www.w3.org/1999/xlink">
    <title>3</title>
    <defs>
        <rect id="path-1" x="0" y="0" width="665" height="455"></rect>
        <linearGradient x1="5.31381481%" y1="26.2557384%" x2="97.800229%" y2="72.3610565%" id="linearGradient-3">
            <stop stop-color="#EF7968" offset="0%"></stop>
            <stop stop-color="#DB4437" offset="100%"></stop>
        </linearGradient>
    </defs>
    <g id="Page-1" stroke="none" stroke-width="1" fill="none" fill-rule="evenodd">
        <g id="Artboard" transform="translate(-187.000000, -344.000000)">
            <g id="3" transform="translate(187.000000, 344.000000)">
                <mask id="mask-2" fill="white">
                    <use xlink:href="#path-1"></use>
                </mask>
                <g id="Mask"></g>
                <g id="Group-16" mask="url(#mask-2)">
                    <g transform="translate(38.000000, 0.000000)">
                        <g id="Group-3" stroke-width="1" fill="none" fill-rule="evenodd" transform="translate(0.000000, 15.000000)">
                            <rect id="Rectangle" fill="#E6E6E6" fill-rule="nonzero" x="0" y="0" width="89" height="93" rx="3.96"></rect>
                            <path d="M44.5,21 C30.9690236,21 20,31.9690236 20,45.5 C20,59.0309764 30.9690236,70 44.5,70 C58.0309764,70 69,59.0309764 69,45.5 C69,39.002196 66.4187574,32.7705251 61.8241161,28.1758839 C57.2294749,23.5812426 50.997804,21 44.5,21 L44.5,21 Z M44.8706051,60.1839738 C36.5727864,60.1839738 29.8460752,53.4572627 29.8460752,45.159444 C29.8460752,36.8616253 36.5727864,30.1349141 44.8706051,30.1349141 C53.1684238,30.1349141 59.8951349,36.8616253 59.8951349,45.159444 C59.8951349,53.4572627 53.1684238,60.1839738 44.8706051,60.1839738 Z" id="Shape" fill="#8CC63F" fill-rule="nonzero"></path>
                            <path d="M45,21 C45,23.5966495 45,27.1021263 45,30.0483247 C49.7828547,30.0367192 54.2826694,32.3178773 57.1061241,36.1854626 C59.9295789,40.0530478 60.735958,45.0403459 59.2755747,49.6030928 L68.1080881,52 C70.1323009,44.7103666 68.6689847,36.8924611 64.1461073,30.8327421 C59.6232298,24.7730232 52.5518151,21.1561571 45,21.0399485 L45,21 Z" id="Path" fill="#FAFAFA" fill-rule="nonzero"></path>
                            <path d="M29.9470588,45.6026349 C29.9462942,39.5548539 33.4944004,34.0741836 39,31.6187845 L35.1796791,23 C25.9815591,26.9044015 20.0032521,35.9547672 20,45.9800255 C20,46.3268168 20,46.6838079 20,47 L29.997861,47 C29.9775401,46.561411 29.9470588,46.0820229 29.9470588,45.6026349 Z" id="Path" fill="#5FDFFF" fill-rule="nonzero"></path>
                            <path d="M44.83,60.3287082 C43.7609409,60.3284926 42.6949397,60.2160557 41.65,59.9932965 C41.27,62.1438776 40.56,66.306929 40,69.591991 C52.446676,71.8707354 64.5970928,64.3963288 68,52.3676122 L59.14,50 C57.1640196,56.1533072 51.372985,60.3331749 44.83,60.3287082 L44.83,60.3287082 Z" id="Path" fill="#FF735D" fill-rule="nonzero"></path>
                            <polygon id="Path" fill="#1A2E35" fill-rule="nonzero" points="41.9615385 46.7374101 41.0865385 46.7374101 41.0865385 48 39.8846154 48 39.8846154 46.7374101 37 46.7374101 37 45.7985612 39.4903846 42 40.7884615 42 38.5288462 45.6043165 39.9615385 45.6043165 39.9615385 44.5251799 41.125 44.5251799 41.125 45.6043165 42 45.6043165"></polygon>
                            <path d="M42,44.9947826 C42,43.0852174 43.0504202,42 44.5,42 C45.9495798,42 47,43.0434783 47,44.9947826 C47,46.946087 45.9495798,48 44.5,48 C43.0504202,48 42,46.9043478 42,44.9947826 Z M45.644958,44.9947826 C45.644958,43.68 45.1827731,43.1269565 44.5,43.1269565 C43.8172269,43.1269565 43.3655462,43.6695652 43.3655462,44.9947826 C43.3655462,46.32 43.8277311,46.8626087 44.5,46.8626087 C45.1722689,46.8626087 45.592437,46.3095652 45.592437,44.9947826 L45.644958,44.9947826 Z" id="Shape" fill="#1A2E35" fill-rule="nonzero"></path>
                            <path d="M47.0087734,43.5665904 C47.0897228,42.7715206 47.7903215,42.1836078 48.5921604,42.237879 C49.3939994,42.2921501 50.0080121,42.9690402 49.9798589,43.7676834 C49.9517058,44.5663266 49.2915361,45.1988086 48.4878435,45.1971492 C48.0660573,45.199609 47.6632687,45.0229195 47.3807646,44.7114857 C47.0982604,44.400052 46.9629188,43.9835047 47.0087734,43.5665904 Z M49.1523532,43.5665904 C49.1523532,42.9271658 48.9058415,42.6287676 48.5307151,42.6287676 C48.1555886,42.6287676 47.9090769,42.9378228 47.9090769,43.5665904 C47.9090769,44.195358 48.1663065,44.5044132 48.5307151,44.5044132 C48.8951236,44.5044132 49.1094816,44.2060151 49.1094816,43.5665904 L49.1523532,43.5665904 Z M52.0783397,42 L53.0858222,42 L49.0130205,47.9253352 L47.9948201,47.9253352 L52.0783397,42 Z M51.0279856,46.3694018 C51.1091068,45.5729727 51.8118911,44.9846993 52.6149694,45.0409994 C53.4180477,45.0972995 54.0308657,45.7778037 53.9987969,46.5776717 C53.966728,47.3775396 53.3013748,48.0073786 52.4963378,47.9999347 C52.0764171,47.999383 51.6765255,47.8213778 51.3964048,47.5103175 C51.1162841,47.1992572 50.9823416,46.784466 51.0279856,46.3694018 L51.0279856,46.3694018 Z M53.1715654,46.3694018 C53.1715654,45.7406342 52.9250537,45.431579 52.5499273,45.431579 C52.1748008,45.431579 51.9282891,45.7406342 51.9282891,46.3694018 C51.9282891,46.9981694 52.1855187,47.3072247 52.5499273,47.3072247 C52.9143358,47.3072247 53.1715654,46.9875123 53.1715654,46.3694018 Z" id="Shape" fill="#1A2E35" fill-rule="nonzero"></path>
                            <ellipse id="Oval" fill="#E1E1E1" fill-rule="nonzero" cx="44.5" cy="77" rx="20.5" ry="1"></ellipse>
                            <ellipse id="Oval" fill="#E1E1E1" fill-rule="nonzero" cx="44.5" cy="80" rx="11.5" ry="1"></ellipse>
                            <circle id="Oval" fill="#E1E1E1" fill-rule="nonzero" cx="8" cy="8" r="2"></circle>
                            <circle id="Oval" fill="#E1E1E1" fill-rule="nonzero" cx="14" cy="8" r="2"></circle>
                            <circle id="Oval" fill="#E1E1E1" fill-rule="nonzero" cx="20" cy="8" r="2"></circle>
                        </g>
                        <g id="Group-2" stroke-width="1" fill="none" fill-rule="evenodd" transform="translate(416.000000, 0.000000)">
                            <path d="M119.699695,61.4423392 C119.416304,60.2190612 119.273588,58.9677683 119.274289,57.7124969 C119.218151,56.2103829 119.050873,54.7144082 118.773811,53.2366861 C118.519283,51.2057741 118.122102,49.1950407 117.585177,47.2192071 C116.283535,41.7799761 114.175154,36.5633118 111.329206,31.7403614 C107.606932,25.3452572 102.689131,19.7158493 96.8403763,15.1549958 C81.4680694,3.08491678 60.9833982,-0.412155029 42.4384511,5.8676884 C37.1783369,7.59100148 32.2157993,10.1068948 27.7244069,13.3273731 C25.3860254,14.9578592 23.1582493,16.7396065 21.0555417,18.6610476 C18.9673971,20.7004552 17.0194897,22.8769527 15.2249765,25.1758389 C-0.129252834,44.8736491 -0.798562733,72.2072939 13.5734002,92.6238212 C15.2382731,94.9964471 17.0607295,97.2559559 19.028607,99.3872686 C21.0240661,101.413772 23.1515187,103.307648 25.3971856,105.056629 C29.727295,108.493407 34.5633288,111.248362 39.7358715,113.224984 C65.5079019,123.240637 94.8129266,113.823541 109.802749,90.7091688 C112.890087,86.0317841 115.259933,80.9240064 116.83446,75.5535761 C117.485239,73.6188413 117.999476,71.6413745 118.373429,69.6355596 C118.725163,68.1716655 118.967719,66.6839786 119.099122,65.1846144 C119.159906,63.9221941 119.365601,62.6708033 119.712207,61.454772 C119.855177,62.6939944 119.855177,63.9453919 119.712207,65.1846144 C119.703824,66.7108225 119.561482,68.2333955 119.286801,69.735022 C119.028546,71.8070081 118.610247,73.8561798 118.035607,75.8643963 C116.63608,81.4389328 114.369137,86.7621302 111.316694,91.6416293 C102.289519,106.270801 87.3413838,116.310687 70.3150586,119.180299 C59.6523311,120.950017 48.7069855,119.842224 38.6223087,115.972634 C33.1618221,113.928617 28.0511325,111.060242 23.4703465,107.468594 C21.091513,105.634815 18.8385253,103.645287 16.7264096,101.513279 C14.640139,99.2752097 12.7088767,96.899246 10.9458923,94.4017127 C-4.28061465,72.8787995 -3.55937902,43.9948181 12.7225881,23.2487537 C14.6093257,20.8429773 16.657615,18.5667258 18.8534398,16.435575 C21.0690128,14.4091158 23.4181294,12.5317401 25.8851514,10.8159459 C30.6556087,7.44096089 35.9228916,4.81978258 41.5000554,3.04544104 C51.7594959,-0.33301793 62.7435684,-0.912668279 73.3054128,1.36701198 C90.1722018,5.05193946 104.614028,15.7989397 112.918222,30.8451993 C115.730234,35.8676645 117.735462,41.2957782 118.861395,46.9332525 C119.326609,48.9789031 119.631976,51.0572298 119.774767,53.1496564 C119.9748,54.6619334 120.041784,56.1886592 119.974958,57.7124969 C120.026971,58.9621454 119.934614,60.2135993 119.699695,61.4423392 L119.699695,61.4423392 Z" id="Path" fill="#D9D9D9" fill-rule="nonzero"></path>
                            <path d="M107.990053,24.281938 C108.115676,24.4740218 107.047879,25.4216352 104.987659,26.9839167 L101.218964,29.7755345 C100.465225,30.3005636 99.6737996,30.9024261 98.7944374,31.4658719 L95.8799801,33.0153479 C85.2875919,39.1861445 73.2411462,42.2859672 61.0446773,41.9792583 L55.7685046,41.7359521 L50.7435781,40.9292002 C49.9144652,40.7883387 49.0853524,40.6730885 48.2311149,40.5066158 L45.8693994,39.8663365 C44.3116722,39.4309466 42.7790696,39.0595846 41.3092786,38.5857779 C36.1520495,36.816109 31.1952533,34.4893381 26.5234325,31.6451501 C18.5840487,26.7534162 14.7148553,22.2970722 15.0163509,22.0153493 C15.3178465,21.7336264 19.6518456,25.3704129 27.654041,29.5962563 C32.3182146,32.0524259 37.1862049,34.0836097 42.2012031,35.6661042 C43.6207448,36.0886886 45.1030981,36.4088282 46.5980138,36.7929958 L48.871793,37.3692472 L51.2335084,37.7278036 L56.0700001,38.457722 L61.0949266,38.6626114 C72.7871053,38.9277018 84.3671846,36.2908452 94.8373078,30.9792596 L97.7894521,29.698701 C98.6939389,29.2248943 99.5104895,28.6998653 100.301915,28.2644754 L104.346981,25.9978866 C106.532824,24.6789112 107.902117,24.0898542 107.990053,24.281938 Z" id="Path" fill="#D9D9D9" fill-rule="nonzero"></path>
                            <path d="M13.0099458,96.718062 C12.8843396,96.5259782 13.9519922,95.5783648 16.0119338,94.0160833 L19.7926803,91.2244655 C20.5463175,90.6994364 21.3376365,90.0975739 22.2168799,89.5341281 L25.1309436,87.9846521 C35.7219011,81.8138555 47.7667198,78.7140328 59.9615415,79.0207417 L65.2370017,79.2640479 L70.2612495,80.0707998 C71.0902503,80.2116613 71.9192512,80.3269115 72.7733734,80.4933842 L75.1347698,81.1336635 C76.6922866,81.5690534 78.2246822,81.9404154 79.6942747,82.4142221 C84.8507718,84.1839821 89.8068892,86.5107487 94.4781239,89.3548499 C102.416435,94.2465838 106.285106,98.7029278 105.983651,98.9846507 C105.682196,99.2663736 101.348783,95.6295871 93.3476681,91.4037437 C88.6907183,88.9625579 83.8319196,86.9442827 78.827592,85.3723125 C77.408242,84.9497282 75.9260889,84.6295885 74.4313751,84.2454209 L72.157903,83.6691696 L69.7965065,83.3106131 L65.0109105,82.5806947 L59.9866627,82.3758053 C48.2960632,82.1107149 36.7175479,84.7475716 26.2488387,90.0591571 L23.2970931,91.3397157 C22.3927285,91.8135224 21.5762883,92.3385515 20.7849692,92.7739414 L16.7027679,95.0661413 C14.454417,96.3467 13.135552,96.9101458 13.0099458,96.718062 Z" id="Path" fill="#D9D9D9" fill-rule="nonzero"></path>
                            <path d="M120,62.3235564 C120,63.1570844 93.5400769,63.2265451 60.9624749,62.4972081 C28.3848728,61.7678711 1.97499656,60.4944255 2,59.6724743 C2.02503896,58.850523 28.4474258,58.7694856 61.0500491,59.4988226 C93.6526723,60.2281596 120.012506,61.5016052 120,62.3235564 Z" id="Path" fill="#D9D9D9" fill-rule="nonzero"></path>
                            <path d="M58.6764436,119 C57.8429156,119 57.7734549,92.5469679 58.5027919,59.9624602 C59.2321289,27.3779526 60.5055745,0.974991273 61.3275257,1 C62.149477,1.02504428 62.2305144,27.4530321 61.5011774,60.0375398 C60.7718404,92.6220474 59.4983948,119.025009 58.6764436,119 Z" id="Path" fill="#D9D9D9" fill-rule="nonzero"></path>
                            <path d="M58.1484752,118.98198 C57.9248295,119.319948 51.4763791,114.913846 44.0215232,104.925012 C39.6694106,99.0543355 36.1446224,92.605155 33.5474507,85.7609718 C30.3834382,77.3100637 28.844391,68.3298234 29.0124133,59.2993247 C29.2291459,50.2603754 31.2400629,41.3566294 34.926599,33.113059 C37.9015791,26.4346937 41.7501239,20.1873601 46.3698028,14.5373332 C54.2471006,4.93653688 60.7700995,0.68064283 60.9937452,1.01861089 C61.2173909,1.35657894 55.415028,6.22582243 48.171393,15.9517921 C43.9503468,21.622132 40.4212447,27.7831393 37.6600462,34.3022058 C34.2969857,42.2261953 32.458668,50.7216761 32.2428509,59.3368767 C32.0710563,68.0024785 33.4559141,76.6279752 36.3305969,84.797137 C38.7262773,91.4301932 41.9316232,97.7372803 45.8728124,103.57314 C52.6567313,113.67463 58.4715189,118.593943 58.1484752,118.98198 Z" id="Path" fill="#D9D9D9" fill-rule="nonzero"></path>
                            <path d="M61.8175325,1.01801994 C62.0414389,0.680051877 68.4974094,5.08615397 75.960959,15.0749877 C80.3181469,20.9456646 83.8470457,27.3948452 86.4472462,34.2390284 C89.6149485,42.6899365 91.1557905,51.6701769 90.9875722,60.7006756 C90.7705869,69.7396249 88.7573248,78.643371 85.0664895,86.8869415 C82.0987976,93.5589066 78.2584004,99.8018921 73.6472586,105.45015 C65.7483353,115.063464 59.2301686,119.319358 59.0062621,118.98139 C58.7823556,118.643422 64.5914851,113.774178 71.8435674,104.035691 C76.0642328,98.3685598 79.5932257,92.2118395 82.3547332,85.6977946 C85.7220046,77.7738981 87.5624783,69.2783607 87.7782459,60.6631236 C87.9148072,52.0131484 86.4989204,43.4093738 83.5986581,35.2654499 C81.2060688,28.6023071 77.996845,22.2655106 74.0453146,16.4018253 C67.3032414,6.33788752 61.4816727,1.38102266 61.8175325,1.01801994 Z" id="Path" fill="#D9D9D9" fill-rule="nonzero"></path>
                        </g>
                        <path d="M358.004149,393.999964 L358.004149,367 C372.829882,367.004565 384.879502,378.959197 384.999103,393.782151 C385.118704,408.605105 373.263553,420.752556 358.439823,420.996277 C343.616093,421.239997 331.367899,409.488834 331,394.669963 L358.004149,393.999964 Z" id="Path" fill="#ECECEC" fill-rule="nonzero"></path>
                        <path d="M352,386.382055 L325,387 C324.995602,379.680029 327.733197,372.631047 332.660004,367.276411 C337.707506,362.145782 344.511862,359.1818 351.66,359 L352,386.382055 Z" id="Path" fill="#D9D9D9" fill-rule="nonzero"></path>
                        <path d="M174.903843,32 L387.179916,32 C392.031521,32 395.972308,35.9298137 396,40.7957017 L396,214.29622 C396,221.312324 390.329111,227 383.333714,227 L179.666286,227 C172.670889,227 167,221.312324 167,214.29622 L167,39.9272398 C167,35.5491461 170.538671,32 174.903843,32 Z" id="Path" fill="#FFFFFF" fill-rule="nonzero"></path>
                        <path d="M173.241238,33 L388.841229,33 C390.739853,33 392.560715,33.7399902 393.903245,35.0571812 C395.245775,36.3743722 396,38.1608665 396,40.0236559 L396,56 L167,56 L167,39.1234409 C167,35.7415579 169.794297,33 173.241238,33 L173.241238,33 Z" id="Path" fill="#E1E1E1" fill-rule="nonzero"></path>
                        <path d="M396,56.5 C396,56.64 344.729686,56.76 281.505048,56.76 C218.280411,56.76 167,56.64 167,56.5 C167,56.36 218.260218,56.24 281.505048,56.24 C344.749879,56.24 396,56.35 396,56.5 Z" id="Path" fill="#1A2E35" fill-rule="nonzero"></path>
                        <circle id="Oval" fill="#1A2E35" fill-rule="nonzero" cx="177" cy="45" r="2"></circle>
                        <circle id="Oval" fill="#1A2E35" fill-rule="nonzero" cx="184" cy="45" r="2"></circle>
                        <circle id="Oval" fill="#1A2E35" fill-rule="nonzero" cx="191" cy="45" r="2"></circle>
                        <ellipse id="Oval" fill="#1A2E35" fill-rule="nonzero" cx="283" cy="73.5" rx="37" ry="1"></ellipse>
                        <path d="M285,89.5 C285,89.64 265.293863,89.76 241,89.76 C216.706137,89.76 197,89.64 197,89.5 C197,89.36 216.696099,89.24 241,89.24 C265.303901,89.24 285,89.36 285,89.5 Z" id="Path" fill="#1A2E35" fill-rule="nonzero"></path>
                        <path d="M285,97.5 C285,97.64 265.293863,97.76 241,97.76 C216.706137,97.76 197,97.64 197,97.5 C197,97.36 216.696099,97.24 241,97.24 C265.303901,97.24 285,97.36 285,97.5 Z" id="Path" fill="#1A2E35" fill-rule="nonzero"></path>
                        <path d="M285,105.5 C285,105.64 265.293863,105.76 241,105.76 C216.706137,105.76 197,105.64 197,105.5 C197,105.36 216.696099,105.24 241,105.24 C265.303901,105.24 285,105.36 285,105.5 Z" id="Path" fill="#1A2E35" fill-rule="nonzero"></path>
                        <path d="M285,114.5 C285,114.64 265.293863,114.76 241,114.76 C216.706137,114.76 197,114.64 197,114.5 C197,114.36 216.696099,114.24 241,114.24 C265.303901,114.24 285,114.35 285,114.5 Z" id="Path" fill="#1A2E35" fill-rule="nonzero"></path>
                        <path d="M285,122.5 C285,122.64 265.293863,122.76 241,122.76 C216.706137,122.76 197,122.64 197,122.5 C197,122.36 216.696099,122.24 241,122.24 C265.303901,122.24 285,122.35 285,122.5 Z" id="Path" fill="#1A2E35" fill-rule="nonzero"></path>
                        <path d="M285,145.5 C285,145.64 265.293863,145.76 241,145.76 C216.706137,145.76 197,145.64 197,145.5 C197,145.36 216.696099,145.24 241,145.24 C265.303901,145.24 285,145.36 285,145.5 Z" id="Path" fill="#1A2E35" fill-rule="nonzero"></path>
                        <path d="M285,137.5 C285,137.64 265.293863,137.76 241,137.76 C216.706137,137.76 197,137.64 197,137.5 C197,137.36 216.696099,137.24 241,137.24 C265.303901,137.24 285,137.33 285,137.5 Z" id="Path" fill="#1A2E35" fill-rule="nonzero"></path>
                        <path d="M342,87 C328.746484,87 318.001866,97.7431077 318,110.996621 C317.998134,124.250135 328.739728,134.996266 341.993242,135 C355.246756,135.003731 365.994401,124.263651 366,111.010139 C366,97.753664 355.256473,87.0055982 342,87 L342,87 Z M342.365018,125.387832 C334.222842,125.387832 327.622305,118.787295 327.622305,110.64512 C327.622305,102.502945 334.222842,95.9024079 342.365018,95.9024079 C350.507193,95.9024079 357.107731,102.502945 357.107731,110.64512 C357.107731,118.787295 350.507193,125.387832 342.365018,125.387832 L342.365018,125.387832 Z" id="Shape" fill="#5FDFFF" fill-rule="nonzero"></path>
                        <path d="M327.432358,110.629273 C327.432458,104.843897 330.789068,99.6000534 336,97.2445223 L332.382109,89 C323.664118,92.7322265 317.998223,101.396116 318,110.992112 C318,111.324715 318,111.657318 318,112 L327.472115,112 C327.462176,111.54645 327.432358,111.092901 327.432358,110.629273 Z" id="Path" fill="#E1E1E1" fill-rule="nonzero"></path>
                        <ellipse id="Oval" fill="#1A2E35" fill-rule="nonzero" cx="342.5" cy="141" rx="19.5" ry="1"></ellipse>
                        <ellipse id="Oval" fill="#1A2E35" fill-rule="nonzero" cx="342" cy="145" rx="11" ry="1"></ellipse>
                        <polygon id="Path" fill="#1A2E35" fill-rule="nonzero" points="341 108 341 109.092896 338.871397 114 337.008869 114 339.04878 109.377049 337.463415 109.377049 337.463415 110.295082 336 110.295082 336 108.032787"></polygon>
                        <path d="M345,111.996016 C345,113.073109 344.187082,113.99941 342.349666,113.99941 C341.526747,114.012377 340.715307,113.811515 340,113.417779 L340.612472,112.168351 C341.112651,112.483948 341.696791,112.652325 342.293987,112.653043 C342.873051,112.653043 343.262806,112.426853 343.262806,112.028329 C343.262806,111.629804 343.006682,111.435928 342.082405,111.435928 L340.434298,111.435928 L340.734967,108 L344.610245,108 L344.610245,109.281741 L342.160356,109.281741 L342.082405,110.143416 L342.494432,110.143416 C344.298441,110.154187 345,110.951236 345,111.996016 Z" id="Path" fill="#1A2E35" fill-rule="nonzero"></path>
                        <path d="M345.006489,109.565141 C345.069195,108.743445 345.753934,108.122699 346.550913,108.165053 C347.347892,108.207407 347.967331,108.89746 347.948055,109.721464 C347.928778,110.545468 347.277794,111.203816 346.479764,111.206365 C346.066047,111.214466 345.668631,111.0399 345.387298,110.726496 C345.105964,110.413091 344.967434,109.990615 345.006489,109.565141 L345.006489,109.565141 Z M349.868298,108 L351.046918,108 L347.111168,113.923623 L345.953594,113.923623 L349.868298,108 Z M346.953317,109.565141 C346.953317,108.967344 346.753372,108.728225 346.469241,108.728225 C346.185109,108.728225 345.985165,108.967344 345.985165,109.565141 C345.985165,110.162937 346.206156,110.402056 346.469241,110.402056 C346.732326,110.402056 346.96384,110.162937 346.96384,109.565141 L346.953317,109.565141 Z M349.057996,112.358482 C349.120703,111.536786 349.805442,110.916041 350.602421,110.958394 C351.3994,111.000748 352.018839,111.690801 351.999562,112.514805 C351.980285,113.338809 351.329301,113.997158 350.531272,113.999706 C350.118313,114.008176 349.721671,113.833302 349.441933,113.519432 C349.162194,113.205563 349.02623,112.782846 349.06852,112.358482 L349.057996,112.358482 Z M351.004825,112.358482 C351.004825,111.760685 350.794357,111.521567 350.520748,111.521567 C350.24714,111.521567 350.036672,111.760685 350.036672,112.358482 C350.036672,112.956279 350.24714,113.195398 350.520748,113.195398 C350.794357,113.195398 351.015348,112.967148 351.015348,112.358482 L351.004825,112.358482 Z" id="Shape" fill="#1A2E35" fill-rule="nonzero"></path>
                        <rect id="Rectangle" fill="#ECECEC" fill-rule="nonzero" x="207" y="194" width="7" height="16"></rect>
                        <rect id="Rectangle" fill="#ECECEC" fill-rule="nonzero" x="230" y="194" width="7" height="16"></rect>
                        <rect id="Rectangle" fill="#F5F5F5" fill-rule="nonzero" x="218" y="180" width="7" height="30"></rect>
                        <rect id="Rectangle" fill="#F5F5F5" fill-rule="nonzero" x="241" y="180" width="7" height="30"></rect>
                        <rect id="Rectangle" fill="#ECECEC" fill-rule="nonzero" x="253" y="181" width="7" height="29"></rect>
                        <rect id="Rectangle" fill="#ECECEC" fill-rule="nonzero" x="276" y="181" width="7" height="29"></rect>
                        <rect id="Rectangle" fill="#ECECEC" fill-rule="nonzero" x="299" y="181" width="7" height="29"></rect>
                        <rect id="Rectangle" fill="#F5F5F5" fill-rule="nonzero" x="264" y="166" width="7" height="44"></rect>
                        <rect id="Rectangle" fill="#F5F5F5" fill-rule="nonzero" x="287" y="170" width="7" height="40"></rect>
                        <rect id="Rectangle" fill="#ECECEC" fill-rule="nonzero" x="333" y="181" width="7" height="29"></rect>
                        <rect id="Rectangle" fill="#F5F5F5" fill-rule="nonzero" x="322" y="186" width="7" height="24"></rect>
                        <rect id="Rectangle" fill="#ECECEC" fill-rule="nonzero" x="357" y="165" width="7" height="45"></rect>
                        <rect id="Rectangle" fill="#F5F5F5" fill-rule="nonzero" x="346" y="186" width="7" height="24"></rect>
                        <rect id="Rectangle" fill="#F5F5F5" fill-rule="nonzero" x="369" y="186" width="7" height="24"></rect>
                        <rect id="Rectangle" fill="#ECECEC" fill-rule="nonzero" x="311" y="176" width="7" height="34"></rect>
                        <circle id="Oval" fill="#FF735D" fill-rule="nonzero" cx="267" cy="165" r="2"></circle>
                        <path d="M266.99991,168 C265.783962,168 264.688311,167.265909 264.225693,166.141401 C263.763076,165.016893 264.025002,163.724354 264.888899,162.868659 C265.752795,162.012963 267.047772,161.763377 268.167814,162.2367 C269.287857,162.710024 270.011408,163.812628 269.999864,165.028523 C269.984239,166.674221 268.64568,168.000074 266.99991,168 L266.99991,168 Z M266.99991,162.246916 C265.886376,162.246916 264.882487,162.917694 264.456356,163.946467 C264.030225,164.975239 264.265771,166.159408 265.053158,166.946796 C265.840546,167.734185 267.024713,167.96973 268.053484,167.543599 C269.082255,167.117467 269.753032,166.113578 269.753032,165.000042 C269.747823,163.481696 268.518255,162.252125 266.99991,162.246916 Z" id="Shape" fill="#FF735D" fill-rule="nonzero"></path>
                        <polygon id="Path" fill="#ECECEC" fill-rule="nonzero" points="268.285266 161 268.200627 157.803738 269 157.82243 267.504702 156 266 157.841121 266.836991 157.841121 266.912226 161"></polygon>
                        <circle id="Oval" fill="#FF735D" fill-rule="nonzero" cx="210" cy="187" r="2"></circle>
                        <path d="M210,190 C208.343146,190 207,188.656854 207,187 C207,185.343146 208.343146,184 210,184 C211.656854,184 213,185.343146 213,187 C213,188.656854 211.656854,190 210,190 Z M210,184.246835 C208.479469,184.246835 207.246835,185.479469 207.246835,187 C207.246835,188.520531 208.479469,189.753165 210,189.753165 C211.520531,189.753165 212.753165,188.520531 212.753165,187 C212.747956,185.481632 211.518368,184.252044 210,184.246835 L210,184.246835 Z" id="Shape" fill="#FF735D" fill-rule="nonzero"></path>
                        <polygon id="Path" fill="#ECECEC" fill-rule="nonzero" points="209.713855 176 209.804217 179.834829 209 179.824057 210.5 182 212 179.802513 211.168675 179.791741 211.087349 176.010772"></polygon>
                        <polygon id="Path" fill="#ECECEC" fill-rule="nonzero" points="301.722892 168 301.804217 171.834829 301 171.824057 302.5 174 304 171.802513 303.168675 171.791741 303.087349 168.010772"></polygon>
                        <path d="M323.46903,200 L302.980959,180.56448 C289.993434,174.221719 269.948348,164.885747 267.612607,165.0181 C264.994966,165.170814 215.259794,184.993213 196.37251,192.618778 L196,191.671946 C198.788794,190.552036 264.239877,164.183258 267.5522,164 L267.622675,164 C271.257168,164 300.172029,178.070136 303.484351,179.688914 L303.605165,179.780543 L323.630116,198.778281 C327.425695,196.742081 349.212519,185.135747 349.574962,184.96267 C349.705844,184.901584 350.048151,184.75905 380,184.769231 L380,185.78733 C368.512585,185.78733 351.246225,185.78733 349.927336,185.919683 C348.78967,186.5 332.449551,195.214932 323.75093,199.847285 L323.46903,200 Z" id="Path" fill="#5FDFFF" fill-rule="nonzero"></path>
                        <circle id="Oval" fill="#FF735D" fill-rule="nonzero" cx="303" cy="180" r="2"></circle>
                        <path d="M303,183 C301.343146,183 300,181.656854 300,180 C300,178.343146 301.343146,177 303,177 C304.656854,177 306,178.343146 306,180 C306,181.656854 304.656854,183 303,183 L303,183 Z M303,177.246835 C301.886449,177.246835 300.882545,177.917622 300.456408,178.94641 C300.03027,179.975197 300.265819,181.159382 301.053219,181.946781 C301.840618,182.734181 303.024803,182.96973 304.05359,182.543592 C305.082378,182.117455 305.753165,181.113551 305.753165,180 C305.747956,178.481632 304.518368,177.252044 303,177.246835 L303,177.246835 Z" id="Shape" fill="#FF735D" fill-rule="nonzero"></path>
                        <circle id="Oval" fill="#FF735D" fill-rule="nonzero" cx="349" cy="185" r="2"></circle>
                        <path d="M349,189 C347.343146,189 346,187.656854 346,186 C346,184.343146 347.343146,183 349,183 C350.656854,183 352,184.343146 352,186 C352,186.795649 351.683929,187.558711 351.12132,188.12132 C350.558711,188.683929 349.795649,189 349,189 L349,189 Z M349,183.246835 C347.497895,183.298819 346.315066,184.545882 346.342516,186.048636 C346.369967,187.55139 347.597552,188.754423 349.100553,188.751517 C350.603555,188.748602 351.826471,187.540823 351.848101,186.037975 C351.856223,185.285296 351.556871,184.561893 351.019267,184.035041 C350.481663,183.508189 349.752361,183.223512 349,183.246835 L349,183.246835 Z" id="Shape" fill="#FF735D" fill-rule="nonzero"></path>
                        <polygon id="Path" fill="#ECECEC" fill-rule="nonzero" points="348.713855 175 348.804217 178.834829 348 178.813285 349.5 181 351 178.791741 350.168675 178.791741 350.087349 175.010772"></polygon>
                        <path d="M384.620318,227 L385.155024,227 L385.820883,227 L386.738962,226.858813 C387.602897,226.696447 388.448004,226.446394 389.261157,226.112536 C390.373007,225.62637 391.411975,224.988301 392.348324,224.216591 C393.531834,223.224108 394.511698,222.011746 395.233715,220.646566 C396.099212,218.997866 396.575472,217.172924 396.625967,215.311698 C396.625967,211.277772 396.625967,206.598417 396.625967,201.344228 C396.625967,180.307302 396.625967,149.911667 396.545257,112.285219 C396.545257,93.4871225 396.545257,72.8939284 396.545257,50.7678424 C396.545257,48.0046028 396.545257,45.217832 396.545257,42.40753 C396.639311,41.0198732 396.523674,39.6259706 396.202238,38.2727555 C395.800782,36.9155895 395.049243,35.6878633 394.023062,34.7128155 C393.012965,33.7301655 391.75939,33.0340089 390.391101,32.6958523 C388.986219,32.449702 387.557377,32.3684728 386.133635,32.4538167 L341.016611,32.4538167 L179.212755,32.4538167 C177.427041,32.4538167 175.600971,32.4538167 173.865701,32.4538167 C170.282216,32.8241552 167.552019,35.8314071 167.529947,39.4325093 L167.529947,44.7472073 C167.529947,51.8334712 167.529947,58.8693111 167.529947,65.8547269 C167.529947,79.8255585 167.529947,93.5812474 167.529947,107.121794 C167.529947,134.179355 167.529947,160.278858 167.529947,185.137929 C167.529947,191.350176 167.529947,197.485106 167.529947,203.542718 C167.529947,206.568163 167.529947,209.5768 167.529947,212.568628 C167.459887,214.041042 167.530832,215.516779 167.741812,216.975693 C168.571669,221.318252 171.735882,224.84603 175.964168,226.142791 C177.33314,226.539392 178.757069,226.713057 180.181278,226.657116 L201.367716,226.657116 L262.909275,226.657116 L352.003292,226.737795 L376.216365,226.737795 L382.511763,226.737795 L384.660674,226.737795 L382.511763,226.737795 L376.216365,226.737795 L352.003292,226.737795 L262.909275,226.818473 L201.367716,226.818473 L180.140923,226.818473 C178.672232,226.87391 177.204156,226.693452 175.792658,226.283978 C171.399707,224.938348 168.111297,221.274783 167.247462,216.763912 C167.029778,215.275178 166.955453,213.769005 167.025508,212.266084 C167.025508,209.280978 167.025508,206.272342 167.025508,203.240174 C167.025508,197.189284 167.025508,191.054355 167.025508,184.835385 C167.025508,159.976314 167.025508,133.87681 167.025508,106.819249 C167.025508,93.2921494 167.025508,79.5364605 167.025508,65.5521825 C167.025508,58.5667667 167.025508,51.5309268 167.025508,44.4446628 L167.025508,39.5434423 C167.064058,35.6819096 169.984875,32.4590113 173.825346,32.0403393 C175.661504,31.9495759 177.416952,32.0403393 179.222844,32.0403393 L341.026699,32.0403393 L388.302723,32.0403393 C389.043477,32.0326428 389.782298,32.1173367 390.502077,32.2924597 C391.943043,32.6405621 393.265906,33.3643707 394.335814,34.3901014 C395.39689,35.4052739 396.178637,36.6764172 396.605789,38.081144 C396.941231,39.4766808 397.06368,40.9148913 396.968985,42.3470211 C396.968985,45.1573231 396.968985,47.9440939 396.968985,50.7073335 C396.968985,72.8132499 396.968985,93.4064439 396.968985,112.22471 C396.968985,149.820904 396.908453,180.246794 396.888275,201.283719 C396.888275,206.537909 396.888275,211.207178 396.888275,215.261274 C396.830227,217.145646 396.340099,218.991532 395.455668,220.656651 C394.719423,222.032499 393.722263,223.251913 392.519833,224.246845 C391.571037,225.021751 390.518294,225.659938 389.392311,226.142791 C388.572337,226.472302 387.720293,226.715648 386.849939,226.868897 L385.921771,227 L385.245823,227 L384.620318,227 Z" id="Path" fill="#1A2E35" fill-rule="nonzero"></path>
                        <circle id="Oval" fill="#F5F5F5" fill-rule="nonzero" cx="397.5" cy="131.5" r="10.5"></circle>
                        <path d="M387.025409,131.95385 C387.119239,132.829798 387.2608,133.699501 387.449408,134.558761 C388.049883,136.88336 389.383235,138.931029 391.235815,140.373662 C393.991358,142.532117 397.611917,143.088273 400.849738,141.850462 C402.727753,141.134074 404.360553,139.856835 405.543304,138.178973 C408.160253,134.482737 408.160253,129.445474 405.543304,125.749238 C404.361964,124.067582 402.72902,122.786662 400.849738,122.067494 C397.611917,120.829683 393.991358,121.385839 391.235815,123.544294 C389.383235,124.986926 388.049883,127.034596 387.449408,129.359194 C387.2608,130.218454 387.119239,131.088157 387.025409,131.964106 C386.963503,131.071788 387.040079,130.174924 387.252199,129.307916 C387.794473,126.897206 389.12179,124.755793 391.009025,123.246883 C392.309331,122.210834 393.826117,121.508132 395.436359,121.195771 C397.295556,120.826069 399.216068,120.9819 400.997644,121.647016 C402.968735,122.386722 404.684528,123.717994 405.927861,125.472338 C408.690713,129.349745 408.690713,134.650255 405.927861,138.527662 C404.684528,140.282006 402.968735,141.613278 400.997644,142.352984 C399.216068,143.0181 397.295556,143.173931 395.436359,142.804229 C393.826117,142.491868 392.309331,141.789166 391.009025,140.753117 C389.12179,139.244207 387.794473,137.102794 387.252199,134.692084 C387.031489,133.798671 386.954852,132.873358 387.025409,131.95385 Z" id="Path" fill="#1A2E35" fill-rule="nonzero"></path>
                        <path d="M396.509027,135 C396.309484,134.998773 396.132291,134.863475 396.066654,134.662223 C396.001017,134.46097 396.061163,134.237384 396.216812,134.104027 L398.761908,131.979868 L396.188533,129.906044 C396.053825,129.798145 395.98325,129.621691 396.003391,129.44315 C396.023533,129.26461 396.131331,129.111107 396.28618,129.040466 C396.441028,128.969825 396.619402,128.992776 396.75411,129.100675 L399.817652,131.567116 C399.93269,131.662465 400,131.80925 400,131.964767 C400,132.120284 399.93269,132.267069 399.817652,132.362418 L396.791815,134.889262 C396.711431,134.958214 396.612093,134.997114 396.509027,135 Z" id="Path" fill="#1A2E35" fill-rule="nonzero"></path>
                        <circle id="Oval" fill="#F5F5F5" fill-rule="nonzero" cx="165.5" cy="132.5" r="10.5"></circle>
                        <path d="M175.979137,132.035894 C175.885438,131.159937 175.743979,130.29023 175.555445,129.430983 C174.955404,127.106385 173.623015,125.058715 171.771775,123.616083 C169.018223,121.457628 165.400281,120.901472 162.164801,122.139283 C160.288142,122.855671 158.656523,124.13291 157.474627,125.810772 C154.85957,129.507007 154.85957,134.54427 157.474627,138.240506 C158.655113,139.922163 160.286876,141.203082 162.164801,141.922251 C165.400281,143.160062 169.018223,142.603906 171.771775,140.445451 C173.623015,139.002818 174.955404,136.955149 175.555445,134.63055 C175.743917,133.77129 175.885375,132.901587 175.979137,132.025639 C176.041171,132.917958 175.964648,133.81485 175.752511,134.681828 C175.207571,137.099186 173.873811,139.244929 171.978694,140.753117 C170.679328,141.789166 169.163638,142.491868 167.55456,142.804229 C165.696707,143.173931 163.777583,143.0181 161.997295,142.352984 C160.027628,141.613278 158.313076,140.282006 157.070641,138.527662 C154.309786,134.650255 154.309786,129.349745 157.070641,125.472338 C158.313076,123.717994 160.027628,122.386722 161.997295,121.647016 C163.777583,120.9819 165.696707,120.826069 167.55456,121.195771 C171.582481,122.00593 174.781714,125.195353 175.732804,129.348939 C175.954755,130.224689 176.037959,131.132259 175.979137,132.035894 Z" id="Path" fill="#1A2E35" fill-rule="nonzero"></path>
                        <path d="M166.510958,134.989945 C166.40922,134.989945 166.310227,134.954663 166.228836,134.889394 L163.181918,132.425896 C163.067152,132.330661 163,132.184052 163,132.02872 C163,131.873389 163.067152,131.726779 163.181918,131.631544 L166.200624,129.107716 C166.333334,128.996353 166.511528,128.969152 166.668081,129.036357 C166.824635,129.103562 166.935764,129.254965 166.959607,129.433533 C166.983451,129.612101 166.916386,129.790706 166.783676,129.902068 L164.244578,132.023693 L166.811888,134.095042 C166.9738,134.224882 167.039842,134.450934 166.97584,134.65623 C166.911839,134.861526 166.732156,135 166.529766,135 L166.510958,134.989945 Z" id="Path" fill="#1A2E35" fill-rule="nonzero"></path>
                        <rect id="Rectangle" fill="#FFFFFF" fill-rule="nonzero" x="299" y="248" width="98" height="64" rx="5.89"></rect>
                        <path d="M390.817036,312 C390.817036,312 391.089044,312 391.622986,311.908687 C392.40235,311.797874 393.150282,311.524912 393.819202,311.107166 C394.918138,310.438179 395.770522,309.426585 396.247128,308.225748 C396.861665,306.815477 396.599731,304.989226 396.650103,303.000641 C396.650103,295.00572 396.650103,283.44961 396.569508,269.184561 C396.569508,265.613226 396.569508,261.893085 396.569508,258.024139 C396.569508,257.050138 396.569508,256.065992 396.569508,255.0717 C396.610049,254.082504 396.569614,253.091626 396.448616,252.109115 C396.036306,250.119685 394.617349,248.494222 392.71102,247.827571 C391.731241,247.53705 390.70677,247.430437 389.688705,247.51305 L366.185169,247.51305 L305.20493,247.51305 C302.531706,247.509607 300.218976,249.386441 299.653945,252.017803 C299.540585,252.66047 299.496673,253.313612 299.522978,253.965804 L299.522978,259.961994 C299.522978,265.264886 299.522978,270.486611 299.522978,275.627169 C299.522978,285.894757 299.522978,295.807242 299.522978,305.253017 C299.430365,306.388915 299.635319,307.529404 300.117367,308.560561 C300.611579,309.56042 301.385533,310.392766 302.343805,310.954979 C303.294013,311.508034 304.380272,311.778887 305.476938,311.736208 L321.747067,311.736208 L344.918147,311.736208 L378.496065,311.817375 L387.623456,311.817375 L390.001011,311.817375 L390.806961,311.817375 L390.001011,311.817375 L387.623456,311.817375 L378.496065,311.817375 L344.918147,311.898542 L321.747067,311.898542 L305.466864,311.898542 C304.285651,311.942966 303.115933,311.6511 302.091946,311.056437 C301.051157,310.447374 300.210532,309.544347 299.674094,308.459102 C299.155079,307.35942 298.929394,306.142567 299.019259,304.928351 C299.019259,295.492721 299.019259,285.580236 299.019259,275.302502 C299.019259,270.168708 299.019259,264.946983 299.019259,259.637327 L299.019259,253.975949 C298.994309,253.296431 299.041592,252.616173 299.1603,251.946782 C299.776044,249.079447 302.291973,247.031313 305.20493,247.02605 L366.185169,247.02605 L389.648407,247.02605 C390.721613,246.942734 391.800869,247.05968 392.831912,247.371009 C394.886438,248.085268 396.416873,249.834633 396.861665,251.977219 C396.986531,252.986603 397.02697,254.004768 396.982558,255.020971 C396.982558,256.015263 396.982558,256.999409 396.982558,257.97341 C396.982558,261.869412 396.982558,265.589553 396.982558,269.133832 C396.982558,283.398881 396.922112,294.944845 396.901963,302.949912 C396.901963,303.944204 396.901963,304.884385 396.901963,305.770455 C396.915581,306.611198 396.761417,307.446134 396.448616,308.225748 C395.948949,309.448306 395.063965,310.471473 393.93002,311.137604 C393.24429,311.551184 392.47796,311.810746 391.683433,311.898542 C391.398512,311.960141 391.108389,311.994116 390.817036,312 Z" id="Path" fill="#1A2E35" fill-rule="nonzero"></path>
                        <rect id="Rectangle" fill="#8CC63F" fill-rule="nonzero" x="343" y="285" width="4" height="15"></rect>
                        <rect id="Rectangle" fill="#8CC63F" fill-rule="nonzero" x="312" y="283" width="4" height="17"></rect>
                        <rect id="Rectangle" fill="#8CC63F" fill-rule="nonzero" x="319" y="279" width="4" height="21"></rect>
                        <rect id="Rectangle" fill="#8CC63F" fill-rule="nonzero" x="327" y="281" width="4" height="19"></rect>
                        <rect id="Rectangle" fill="#8CC63F" fill-rule="nonzero" x="335" y="274" width="4" height="26"></rect>
                        <rect id="Rectangle" fill="#8CC63F" fill-rule="nonzero" x="351" y="274" width="4" height="26"></rect>
                        <rect id="Rectangle" fill="#8CC63F" fill-rule="nonzero" x="359" y="283" width="4" height="17"></rect>
                        <rect id="Rectangle" fill="#8CC63F" fill-rule="nonzero" x="366" y="275" width="4" height="25"></rect>
                        <rect id="Rectangle" fill="#8CC63F" fill-rule="nonzero" x="374" y="270" width="4" height="30"></rect>
                        <rect id="Rectangle" fill="#8CC63F" fill-rule="nonzero" x="382" y="275" width="4" height="25"></rect>
                        <circle id="Oval" fill="#E1E1E1" fill-rule="nonzero" cx="309.5" cy="256.5" r="2.5"></circle>
                        <circle id="Oval" fill="#E1E1E1" fill-rule="nonzero" cx="315.5" cy="256.5" r="2.5"></circle>
                        <circle id="Oval" fill="#E1E1E1" fill-rule="nonzero" cx="321.5" cy="256.5" r="2.5"></circle>
                        <rect id="Rectangle" fill="#FFFFFF" fill-rule="nonzero" x="544" y="109" width="83" height="130" rx="8.43"></rect>
                        <path d="M618.166312,238.973293 L618.429288,238.973293 C618.601234,238.973293 618.874325,238.973293 619.218217,238.902934 C621.968281,238.543035 624.367123,236.86872 625.640912,234.4201 C626.13602,233.482249 626.445063,232.45855 626.551215,231.404741 C626.632131,230.268956 626.551215,229.032659 626.551215,227.736054 C626.551215,217.343117 626.551215,202.316578 626.470299,183.762068 C626.389383,165.207559 626.470299,143.084875 626.409612,118.539852 C626.597636,115.446233 625.038126,112.505577 622.36382,110.910993 C619.703712,109.20229 616.295133,109.905874 613.119187,109.745055 L551.7243,109.745055 C548.17678,109.747739 545.02477,111.994904 543.885579,115.33352 C543.459114,116.996767 543.312161,118.718614 543.450656,120.429477 C543.450656,122.164983 543.450656,123.89714 543.450656,125.625946 C543.450656,132.527767 543.450656,139.319026 543.450656,145.999722 C543.450656,159.357762 543.450656,172.243397 543.450656,184.525959 C543.450656,196.808522 543.450656,208.46791 543.450656,219.38351 C543.450656,222.110735 543.450656,224.791054 543.450656,227.424467 C543.450656,228.731123 543.450656,230.067932 543.450656,231.314281 C543.814498,235.108225 546.736744,238.165682 550.530791,238.722013 C551.724813,238.822655 552.923602,238.856213 554.121431,238.822525 L557.661499,238.822525 L601.912344,238.902934 L613.93846,238.902934 L617.063833,238.902934 L618.125854,238.902934 L617.063833,238.902934 L613.93846,238.902934 L601.912344,238.902934 L557.661499,238.983344 L554.121431,238.983344 C552.903583,239.022622 551.68447,238.992418 550.470105,238.892883 C546.492054,238.318942 543.422781,235.11948 543.035963,231.14341 C542.955047,229.816652 543.035963,228.54015 543.035963,227.213392 C543.035963,224.579979 543.035963,221.899659 543.035963,219.172435 C543.035963,208.256835 543.035963,196.587395 543.035963,184.314884 C543.035963,172.042373 543.035963,159.186892 543.035963,145.788646 C543.035963,139.087849 543.035963,132.29659 543.035963,125.41487 L543.035963,117.60509 C543.051036,116.702733 543.204518,115.807939 543.491114,114.951574 C544.699959,111.398932 548.05159,109.006029 551.825445,109 L618.044938,109 C621.380536,108.945033 624.461954,110.765975 626.005033,113.705226 C626.371044,114.414497 626.643028,115.167909 626.814191,115.946643 C626.955377,116.719036 627.016384,117.503794 626.996252,118.288572 C626.996252,142.833595 626.996252,164.946228 626.935565,183.510788 C626.874878,202.075349 626.874878,217.091837 626.854649,227.484775 C626.854649,228.781379 626.854649,229.997574 626.804077,231.163513 C626.691786,232.246863 626.368891,233.298241 625.853316,234.259281 C625.043493,235.770131 623.800969,237.008378 622.282905,237.817405 C621.338826,238.310385 620.309146,238.620767 619.248561,238.732064 C618.89374,238.836795 618.532154,238.917391 618.166312,238.973293 L618.166312,238.973293 Z" id="Path" fill="#1A2E35" fill-rule="nonzero"></path>
                        <circle id="Oval" fill="#E1E1E1" fill-rule="nonzero" cx="554.5" cy="119.5" r="2.5"></circle>
                        <circle id="Oval" fill="#E1E1E1" fill-rule="nonzero" cx="561.5" cy="119.5" r="2.5"></circle>
                        <circle id="Oval" fill="#E1E1E1" fill-rule="nonzero" cx="567.5" cy="119.5" r="2.5"></circle>
                        <ellipse id="Oval" fill="#1A2E35" fill-rule="nonzero" cx="585.5" cy="133.5" rx="29.5" ry="1"></ellipse>
                        <ellipse id="Oval" fill="#1A2E35" fill-rule="nonzero" cx="585.5" cy="138.5" rx="29.5" ry="1"></ellipse>
                        <ellipse id="Oval" fill="#1A2E35" fill-rule="nonzero" cx="585.5" cy="143.5" rx="29.5" ry="1"></ellipse>
                        <ellipse id="Oval" fill="#1A2E35" fill-rule="nonzero" cx="585.5" cy="148.5" rx="29.5" ry="1"></ellipse>
                        <ellipse id="Oval" fill="#1A2E35" fill-rule="nonzero" cx="585.5" cy="154.5" rx="29.5" ry="1"></ellipse>
                        <ellipse id="Oval" fill="#1A2E35" fill-rule="nonzero" cx="585.5" cy="159.5" rx="29.5" ry="1"></ellipse>
                        <ellipse id="Oval" fill="#1A2E35" fill-rule="nonzero" cx="585.5" cy="198.5" rx="29.5" ry="1"></ellipse>
                        <ellipse id="Oval" fill="#1A2E35" fill-rule="nonzero" cx="585.5" cy="204.5" rx="29.5" ry="1"></ellipse>
                        <ellipse id="Oval" fill="#1A2E35" fill-rule="nonzero" cx="585.5" cy="210.5" rx="29.5" ry="1"></ellipse>
                        <ellipse id="Oval" fill="#1A2E35" fill-rule="nonzero" cx="585.5" cy="215.5" rx="29.5" ry="1"></ellipse>
                        <ellipse id="Oval" fill="#1A2E35" fill-rule="nonzero" cx="585.5" cy="221.5" rx="29.5" ry="1"></ellipse>
                        <path d="M616,166.319737 L611.441643,166.319737 L598.858574,166.319737 L556.100184,166.319737 L556.200367,166.237225 C556.200367,169.692452 556.200367,173.281763 556.200367,176.953586 C556.200367,180.62541 556.200367,184.431317 556.200367,188 L556.100184,187.927801 L598.558023,187.927801 L611.040908,187.927801 L611.040908,187.927801 L598.558023,187.927801 L556.100184,187.927801 L556,187.927801 L556,187.845288 C556,184.276606 556,180.62541 556,176.798875 C556,172.972339 556,169.578997 556,166.082513 L556,166 L556.100184,166 L598.858574,166 L611.441643,166 L616,166 L616,166.319737 Z" id="Path" fill="#E1E1E1" fill-rule="nonzero"></path>
                        <ellipse id="Oval" fill="#E1E1E1" fill-rule="nonzero" cx="586" cy="170" rx="30" ry="1"></ellipse>
                        <ellipse id="Oval" fill="#E1E1E1" fill-rule="nonzero" cx="586" cy="173" rx="30" ry="1"></ellipse>
                        <ellipse id="Oval" fill="#E1E1E1" fill-rule="nonzero" cx="586" cy="176" rx="30" ry="1"></ellipse>
                        <ellipse id="Oval" fill="#E1E1E1" fill-rule="nonzero" cx="586" cy="179" rx="30" ry="1"></ellipse>
                        <ellipse id="Oval" fill="#E1E1E1" fill-rule="nonzero" cx="586" cy="182" rx="30" ry="1"></ellipse>
                        <ellipse id="Oval" fill="#E1E1E1" fill-rule="nonzero" cx="586" cy="185" rx="30" ry="1"></ellipse>
                        <ellipse id="Oval" fill="#E1E1E1" fill-rule="nonzero" cx="564" cy="178" rx="1" ry="11"></ellipse>
                        <ellipse id="Oval" fill="#E1E1E1" fill-rule="nonzero" cx="573" cy="178" rx="1" ry="11"></ellipse>
                        <ellipse id="Oval" fill="#E1E1E1" fill-rule="nonzero" cx="582" cy="178" rx="1" ry="11"></ellipse>
                        <ellipse id="Oval" fill="#E1E1E1" fill-rule="nonzero" cx="590" cy="178" rx="1" ry="11"></ellipse>
                        <ellipse id="Oval" fill="#E1E1E1" fill-rule="nonzero" cx="599" cy="178" rx="1" ry="11"></ellipse>
                        <ellipse id="Oval" fill="#E1E1E1" fill-rule="nonzero" cx="607" cy="178" rx="1" ry="11"></ellipse>
                        <ellipse id="Oval" fill="#E1E1E1" fill-rule="nonzero" cx="616" cy="178" rx="1" ry="11"></ellipse>
                        <circle id="Oval" fill="#FF735D" fill-rule="nonzero" cx="564.5" cy="184.5" r="1"></circle>
                        <circle id="Oval" fill="#FF735D" fill-rule="nonzero" cx="572.5" cy="179.5" r="1"></circle>
                        <circle id="Oval" fill="#FF735D" fill-rule="nonzero" cx="581.5" cy="181.5" r="1"></circle>
                        <path d="M590.853553,176.146447 C591.048816,176.341709 591.048816,176.658291 590.853553,176.853553 C590.658291,177.048816 590.341709,177.048816 590.146447,176.853553 L590.146447,176.853553 C589.951184,176.658291 589.951184,176.341709 590.146447,176.146447 C590.341709,175.951184 590.658291,175.951184 590.853553,176.146447 Z" id="Path" fill="#FF735D" fill-rule="nonzero"></path>
                        <path d="M599.853553,176.146447 C600.048816,176.341709 600.048816,176.658291 599.853553,176.853553 C599.658291,177.048816 599.341709,177.048816 599.146447,176.853553 L599.146447,176.853553 C598.951184,176.658291 598.951184,176.341709 599.146447,176.146447 C599.341709,175.951184 599.658291,175.951184 599.853553,176.146447 L599.853553,176.146447 Z" id="Path" fill="#FF735D" fill-rule="nonzero"></path>
                        <path d="M607.853553,181.146447 C608.048816,181.341709 608.048816,181.658291 607.853553,181.853553 C607.658291,182.048816 607.341709,182.048816 607.146447,181.853553 L607.146447,181.853553 C606.951184,181.658291 606.951184,181.341709 607.146447,181.146447 C607.341709,180.951184 607.658291,180.951184 607.853553,181.146447 Z" id="Path" fill="#FF735D" fill-rule="nonzero"></path>
                        <circle id="Oval" fill="#375A64" fill-rule="nonzero" cx="572.5" cy="173.5" r="1"></circle>
                        <circle id="Oval" fill="#375A64" fill-rule="nonzero" cx="564.5" cy="182.5" r="1"></circle>
                        <path d="M607.853544,184.146445 C607.979855,184.272756 608.029185,184.456858 607.982952,184.629402 C607.936719,184.801946 607.801946,184.936719 607.629402,184.982952 C607.456858,185.029185 607.272756,184.979855 607.146445,184.853544 C606.951185,184.658284 606.951185,184.341705 607.146445,184.146445 C607.341705,183.951185 607.658284,183.951185 607.853544,184.146445 L607.853544,184.146445 Z" id="Path" fill="#375A64" fill-rule="nonzero"></path>
                        <circle id="Oval" fill="#375A64" fill-rule="nonzero" cx="598.5" cy="179.5" r="1"></circle>
                        <circle id="Oval" fill="#375A64" fill-rule="nonzero" cx="590.5" cy="178.5" r="1"></circle>
                        <ellipse id="Oval" fill="#E1E1E1" fill-rule="nonzero" cx="560" cy="190" rx="1" ry="1"></ellipse>
                        <ellipse id="Oval" fill="#E1E1E1" fill-rule="nonzero" cx="569" cy="190" rx="1" ry="1"></ellipse>
                        <ellipse id="Oval" fill="#E1E1E1" fill-rule="nonzero" cx="578" cy="190" rx="1" ry="1"></ellipse>
                        <ellipse id="Oval" fill="#E1E1E1" fill-rule="nonzero" cx="586" cy="190" rx="1" ry="1"></ellipse>
                        <ellipse id="Oval" fill="#E1E1E1" fill-rule="nonzero" cx="595" cy="190" rx="1" ry="1"></ellipse>
                        <ellipse id="Oval" fill="#E1E1E1" fill-rule="nonzero" cx="603" cy="190" rx="1" ry="1"></ellipse>
                        <ellipse id="Oval" fill="#E1E1E1" fill-rule="nonzero" cx="611" cy="190" rx="1" ry="1"></ellipse>
                        <ellipse id="Oval" fill="#E1E1E1" fill-rule="nonzero" cx="553.5" cy="188" rx="1" ry="1"></ellipse>
                        <ellipse id="Oval" fill="#E1E1E1" fill-rule="nonzero" cx="553.5" cy="184" rx="1" ry="1"></ellipse>
                        <ellipse id="Oval" fill="#E1E1E1" fill-rule="nonzero" cx="553.5" cy="181" rx="1" ry="1"></ellipse>
                        <ellipse id="Oval" fill="#E1E1E1" fill-rule="nonzero" cx="553.5" cy="178" rx="1" ry="1"></ellipse>
                        <ellipse id="Oval" fill="#E1E1E1" fill-rule="nonzero" cx="553.5" cy="174" rx="1" ry="1"></ellipse>
                        <ellipse id="Oval" fill="#E1E1E1" fill-rule="nonzero" cx="553.5" cy="171" rx="1" ry="1"></ellipse>
                        <ellipse id="Oval" fill="#E1E1E1" fill-rule="nonzero" cx="553.5" cy="167" rx="1" ry="1"></ellipse>
                        <polygon id="Path" fill="#FF735D" fill-rule="nonzero" points="556.090543 188 556 187.730225 564.61167 184.722731 573.313883 178.887594 581.975855 181.735221 590.708249 176.019983 599.450704 176 599.490946 176.019983 607.790744 181.855121 615.839034 176.569525 616 176.809326 607.790744 182.204829 607.700201 182.144879 599.360161 176.289759 590.798793 176.309742 582.026157 182.054954 573.364185 179.207327 564.722334 184.992506"></polygon>
                        <polygon id="Path" fill="#375A64" fill-rule="nonzero" points="607.586345 185 599.12249 179.22379 590.39759 179.22379 581.672691 173.447581 573.208835 173.366935 564.564257 182.157258 556 182.157258 556 181.864919 564.443775 181.864919 573.088353 173.074597 581.763052 173.155242 590.487952 178.931452 599.212851 178.931452 607.485944 184.586694 615.748996 170 616 170.141129"></polygon>
                        <path d="M513,402 C526.46087,396.235874 542.052454,384.901117 549,371 C534.058265,377.245435 521.457548,388.096052 513,402" id="Path" fill="#8CC63F" fill-rule="nonzero"></path>
                        <path d="M516,381 C529.46087,375.235874 545.052454,363.901117 552,350 C537.058265,356.245435 524.457548,367.096052 516,381" id="Path" fill="#8CC63F" fill-rule="nonzero"></path>
                        <path d="M520,360 C533.46087,354.235874 549.052454,342.901117 556,329 C541.058265,335.245435 528.457548,346.096052 520,360" id="Path" fill="#8CC63F" fill-rule="nonzero"></path>
                        <path d="M525,338 C537.661219,330.533466 551.740415,317.424665 557,303 C542.943497,311.111612 531.765098,323.337986 525,338" id="Path" fill="#8CC63F" fill-rule="nonzero"></path>
                        <path d="M530,322 C539.377849,309.811879 548.111418,291.702363 547.998925,276 C537.580308,289.244738 531.320209,305.243724 530,322" id="Path" fill="#8CC63F" fill-rule="nonzero"></path>
                        <path d="M527,329 C525.136267,312.706872 518.779427,292.222359 508,280 C509.819154,297.736666 516.381226,314.659904 527,329" id="Path" fill="#8CC63F" fill-rule="nonzero"></path>
                        <path d="M523,348 C519.69455,330.987172 511.329531,309.942578 499,298 C502.375729,316.530825 510.666956,333.804216 523,348" id="Path" fill="#8CC63F" fill-rule="nonzero"></path>
                        <path d="M518,369 C514.69455,351.987172 506.329531,330.942578 494,319 C497.375729,337.530825 505.666956,354.804216 518,369" id="Path" fill="#8CC63F" fill-rule="nonzero"></path>
                        <path d="M514,396 C510.69455,378.987172 502.329531,357.942578 490,346 C493.375729,364.530825 501.666956,381.804216 514,396" id="Path" fill="#8CC63F" fill-rule="nonzero"></path>
                        <path d="M530,318 C529.956101,318.079167 529.922881,318.164037 529.901243,318.252303 L529.654351,319.00921 L528.745787,321.925828 C527.955731,324.458946 526.879281,328.152655 525.634943,332.73447 C524.390606,337.316285 522.988257,342.826573 521.556282,348.881834 C520.124306,354.937096 518.721958,361.769449 517.398615,368.904566 C516.075272,376.039683 515.028448,382.872036 514.159387,389.088771 C513.290326,395.305507 512.658281,400.946992 512.184248,405.680188 C511.710215,410.413384 511.404068,414.248383 511.196679,416.902606 L511.009041,419.930237 L511.009041,420.727513 C510.996986,420.817924 510.996986,420.909589 511.009041,421 C511.020516,420.90955 511.020516,420.817964 511.009041,420.727513 L511.097922,419.940329 L511.384317,416.912698 C511.611458,414.268568 511.976859,410.433568 512.490395,405.710464 C513.003931,400.98736 513.685354,395.366059 514.544539,389.149324 C515.403724,382.932589 516.519678,376.110327 517.813394,368.965119 C519.10711,361.81991 520.548961,355.088477 521.931558,348.962571 C523.314155,342.836665 524.686877,337.356653 525.881836,332.815207 C527.076795,328.273761 528.103867,324.519498 528.844544,321.966196 L529.664226,319.019302 L529.86174,318.252303 C529.919439,318.17542 529.966004,318.090447 530,318 Z" id="Path" fill="#8CC63F" fill-rule="nonzero"></path>
                        <path d="M506.591402,411 C512.616704,399.011572 517.010376,382.152845 514.056378,369 C507.313908,382.011206 504.719419,396.608514 506.591402,411" id="Path" fill="#39B54A" fill-rule="nonzero"></path>
                        <path d="M496.591402,396 C502.616704,384.011572 507.010376,367.152845 504.056378,354 C497.313908,367.011206 494.719419,381.608514 496.591402,396" id="Path" fill="#39B54A" fill-rule="nonzero"></path>
                        <path d="M488.591402,380 C494.616704,368.011572 499.010376,351.152845 496.056378,338 C489.313908,351.011206 486.719419,365.608514 488.591402,380" id="Path" fill="#39B54A" fill-rule="nonzero"></path>
                        <path d="M480.305955,363 C484.817037,350.505698 487.083318,333.464387 482.454089,321 C477.365781,334.510319 476.61943,349.10286 480.305955,363" id="Path" fill="#39B54A" fill-rule="nonzero"></path>
                        <path d="M475,349 C474.57732,335.62989 470.536082,318.909729 462,309 C462.189264,323.288057 466.711773,337.203471 475,349" id="Path" fill="#39B54A" fill-rule="nonzero"></path>
                        <path d="M477,356 C467.223446,346.580448 452.36428,337.221996 439,336 C449.452108,346.360157 462.676313,353.320265 477,356" id="Path" fill="#39B54A" fill-rule="nonzero"></path>
                        <path d="M484,370 C472.851351,361.248818 456.310811,353.040189 442,353 C453.989232,362.670884 468.609001,368.58841 484,370" id="Path" fill="#39B54A" fill-rule="nonzero"></path>
                        <path d="M492,387 C480.851351,378.248818 464.310811,370.040189 450,370 C461.989232,379.670884 476.609001,385.58841 492,387" id="Path" fill="#39B54A" fill-rule="nonzero"></path>
                        <path d="M504,406 C492.851351,397.248818 476.310811,389.040189 462,389 C473.989232,398.670884 488.609001,404.58841 504,406" id="Path" fill="#39B54A" fill-rule="nonzero"></path>
                        <path d="M473,347 C473.009311,347.076545 473.029642,347.15133 473.060359,347.222018 L473.291737,347.857796 L474.217246,350.279809 C475.022036,352.378888 476.229222,355.396312 477.828743,359.089882 C480.987545,366.487114 485.655329,376.578836 491.46994,387.346702 C494.387305,392.745773 497.294611,397.821909 500.030898,402.383367 C502.767186,406.944825 505.342515,410.981514 507.565749,414.331965 C509.788982,417.682417 511.589701,420.386998 512.937725,422.193416 L514.446707,424.292495 L514.849102,424.827356 C514.939641,424.948456 514.98994,425.009007 515,424.998915 C514.97292,424.926677 514.935655,424.858707 514.889341,424.797081 L514.527186,424.231944 L513.088623,422.082408 C511.831138,420.225531 510.070659,417.510858 507.857485,414.140223 C505.644311,410.769588 503.149461,406.702624 500.423234,402.151258 C497.697006,397.599891 494.81988,392.513664 491.912575,387.114593 C486.108024,376.316451 481.38994,366.265096 478.160719,358.908231 C476.541078,355.234845 475.263473,352.237603 474.398323,350.168801 L473.392335,347.787154 L473.120719,347.171559 C473.088196,347.109283 473.047604,347.051597 473,347 L473,347 Z" id="Path" fill="#39B54A" fill-rule="nonzero"></path>
                        <polygon id="Path" fill="#DC4739" fill-rule="nonzero" points="479 413 536 413 536 423.897842 530.144739 423.897842 525.212925 455 489.969735 455 484.895852 423.897842 479 423.897842"></polygon>
                        <ellipse id="Oval" fill="#1A2E35" fill-rule="nonzero" cx="507" cy="423.5" rx="28" ry="1"></ellipse>
                        <path d="M200,310.955885 C202.303379,311.07577 204.612763,310.951145 206.890774,310.584028 C208.521131,310.147926 210.072938,309.450587 211.488006,308.518159 C211.488006,308.518159 216.491174,309.230884 217.292899,308.084327 C217.779451,307.371515 218.04138,306.524884 218.043882,305.656931 L221.717608,305.19211 L225.046288,305.83253 L226.883151,308.115315 C226.883151,308.115315 228.263335,308.115315 228.324226,307.268309 C228.324226,307.268309 230.161089,306.421302 229.988566,305.83253 C229.816043,305.243757 228.801201,302.444504 228.801201,302.444504 L227.40072,299.407677 C227.40072,299.407677 218.328037,298.818904 217.982991,299.056479 C217.637945,299.294054 206.139791,304.696302 206.139791,304.696302 L201.887605,305.729236 L200,310.955885 Z" id="Path" fill="#FF9A6C" fill-rule="nonzero"></path>
                        <path d="M204.32207,295.769474 L218.761866,292.538496 L228.850362,292 C228.850362,292 237.451059,295.98284 237.20649,299.538948 L239,300.554978 C239,300.554978 238.857334,303.216979 236.70716,302.58704 C235.661225,302.28384 234.639365,301.903472 233.65004,301.449085 L235.953071,304.964551 C234.967809,305.518392 233.769301,305.541299 232.763475,305.025513 C232.039957,304.680063 226.965138,300.849627 226.965138,300.849627 L222.67498,300.727703 C222.67498,300.727703 214.695897,306.183788 211.006972,306.823887 C207.318048,307.463987 201,306.153307 201,306.153307 L204.32207,295.769474 Z" id="Path" fill="#FFBF9D" fill-rule="nonzero"></path>
                        <path d="M236.557807,302.669117 C236.557807,302.607561 236.927921,302.730673 237.524215,302.669117 C237.86859,302.597646 238.164925,302.380541 238.336409,302.074077 C238.545878,301.644208 238.631314,301.164644 238.583152,300.68907 L238.665399,300.8327 L232.373466,296.728976 L230.481773,295.4876 C229.89576,295.108005 229.227499,294.677114 228.754576,294.461669 C228.754576,294.461669 228.754576,294.461669 228.754576,294.461669 L226.975974,294.461669 L225.300181,294.461669 C224.199446,294.521392 223.095652,294.49051 222,294.369335 C223.080027,294.184165 224.173503,294.088086 225.269338,294.082074 L226.914288,294 L227.829291,294 L228.312495,294 L228.682609,294 L228.90879,294 C229.556455,294.333471 230.184605,294.703402 230.790201,295.108005 L232.692175,296.339123 C235.128757,297.949834 237.308315,299.416916 238.912142,300.596736 L238.994389,300.658292 L238.994389,300.750626 C239.029319,301.302125 238.900585,301.851665 238.624275,302.33056 C238.397196,302.691812 238.020022,302.932695 237.596182,302.987156 C237.340358,303.017857 237.08091,302.993366 236.835392,302.91534 C236.640054,302.720413 236.557807,302.689636 236.557807,302.669117 Z" id="Path" fill="#FF9A6C" fill-rule="nonzero"></path>
                        <path d="M236,305 C235.456149,304.508207 234.971337,303.957508 234.554923,303.358538 C233.715216,302.308766 232.602116,300.829542 231.332791,299.168994 L231.332791,299.168994 L231.166802,299.04493 C230.746949,298.729998 230.327095,298.42461 229.917006,298.157395 C229.711961,298.023788 229.506916,297.899724 229.301871,297.785204 C229.11211,297.689671 228.907608,297.625193 228.696501,297.594336 C227.894775,297.470558 227.086152,297.394073 226.27502,297.365295 C225.512972,297.373988 224.75164,297.316502 224,297.193514 C224.749733,297.032569 225.518307,296.971573 226.284784,297.01219 C227.120288,296.991912 227.956119,297.036589 228.784378,297.145797 C229.046292,297.180677 229.300401,297.25809 229.536208,297.374838 C229.760781,297.489359 229.97559,297.622966 230.190399,297.756573 C230.620016,298.033331 231.049634,298.33872 231.479251,298.663195 L231.655004,298.796802 L231.655004,298.796802 L231.655004,298.796802 C232.895037,300.45735 233.988609,301.965205 234.759967,303.072237 C235.250547,303.66415 235.666854,304.311344 236,305 L236,305 Z" id="Path" fill="#FF9A6C" fill-rule="nonzero"></path>
                        <path d="M291.443605,412 L291.774041,438.221271 C291.774041,438.221271 318.469299,444.786581 319,449.633119 L268.192896,454 L266,413.159172 L291.443605,412 Z" id="Path" fill="#46727D" fill-rule="nonzero"></path>
                        <g id="Group" opacity="0.6" stroke-width="1" fill="none" fill-rule="evenodd" transform="translate(275.000000, 437.000000)">
                            <path d="M1.40450538,0.0758946567 C0.387293521,0.442536339 -0.192530379,1.5178288 0.0581977623,2.57264312 C0.386577082,3.60978378 1.46654418,4.20772668 2.5162291,3.93357568 C3.59730727,3.54680258 4.2102497,2.40097508 3.93393182,1.28333858 C3.48402099,0.231504644 2.28260112,-0.271475388 1.22091798,0.147522686" id="Path" fill="#FFFFFF" fill-rule="nonzero"></path>
                        </g>
                        <path d="M292.998644,438.168501 C292.998644,438.394353 291.627998,438.547933 290.301925,439.324866 C288.975853,440.101799 288.318388,441.068449 288.073232,440.996176 C287.828076,440.923903 288.151236,439.604924 289.767039,438.692479 C291.382842,437.780034 293.054362,437.960716 292.998644,438.168501 Z" id="Path" fill="#1A2E35" fill-rule="nonzero"></path>
                        <path d="M297.996952,440.085093 C298.062264,440.318816 297.063936,440.776523 296.336184,441.838013 C295.608432,442.899504 295.403168,443.99021 295.188574,443.999949 C294.973981,444.009687 294.750057,442.636566 295.692403,441.341353 C296.634749,440.046139 297.978292,439.85137 297.996952,440.085093 Z" id="Path" fill="#1A2E35" fill-rule="nonzero"></path>
                        <path d="M291.993378,431.55923 C291.908149,431.725034 290.809642,431.515976 289.483857,431.638528 C288.158073,431.761079 287.144795,432.114316 287.012216,431.962929 C286.879638,431.811541 287.836097,431.141113 289.398628,431.018561 C290.96116,430.89601 292.097547,431.415051 291.993378,431.55923 Z" id="Path" fill="#1A2E35" fill-rule="nonzero"></path>
                        <g id="Group" opacity="0.3" stroke-width="1" fill="none" fill-rule="evenodd" transform="translate(267.000000, 417.000000)">
                            <polygon id="Path" fill="#000000" fill-rule="nonzero" points="24.9306656 0 25 4.46321526 0.326862124 7 0 1.38283379"></polygon>
                        </g>
                        <path d="M292,426.768895 C291.162886,427.034082 290.267778,427.071829 289.410414,426.878099 C288.47134,426.759655 287.550563,426.52962 286.668499,426.193095 C286.144706,425.992789 285.635728,425.757273 285.145213,425.488237 C284.846321,425.345615 284.572179,425.158017 284.332794,424.932292 C283.970706,424.588617 283.89526,424.047752 284.15,423.62185 C284.389397,423.262157 284.788401,423.034009 285.226455,423.00634 C285.567639,422.985623 285.910062,423.01575 286.241979,423.095688 C286.80044,423.20196 287.347736,423.358148 287.876973,423.562285 C288.767165,423.906748 289.596467,424.385805 290.334541,424.98193 C291.583635,425.974688 292.040621,426.907882 291.959379,426.967447 C291.878137,427.027013 291.228202,426.312226 289.928331,425.468382 C289.193738,424.983755 288.398507,424.593384 287.56216,424.306854 C287.072368,424.141775 286.569744,424.015616 286.059185,423.929606 C285.500646,423.810475 285.043661,423.83033 284.911643,424.078519 C284.911643,424.167868 284.860866,424.207578 284.982729,424.356492 C285.161712,424.519236 285.363449,424.656284 285.581888,424.763523 C286.034979,425.021304 286.502896,425.253333 286.983311,425.458454 C287.805132,425.806939 288.658507,426.079481 289.532277,426.272516 C290.365788,426.380926 291.190418,426.546799 292,426.768895 L292,426.768895 Z" id="Path" fill="#1A2E35" fill-rule="nonzero"></path>
                        <path d="M291.846279,427 C291.316168,426.310824 291.032632,425.476386 291.037813,424.620708 C290.89158,423.147306 291.171246,421.663785 291.846279,420.332107 C292.098744,419.651869 292.703985,419.147033 293.442743,419.000487 C293.917599,418.987387 294.357073,419.239672 294.568455,419.646714 C294.718052,419.931174 294.824858,420.234443 294.885701,420.547516 C295.002281,421.101643 295.029889,421.669536 294.967571,422.231624 C294.857824,423.173673 294.506261,424.07513 293.944196,424.8557 C292.992458,426.197111 291.897447,426.530016 291.897447,426.451686 C291.897447,426.373355 292.664978,425.825041 293.38134,424.542377 C293.7944,423.807708 294.035355,422.995814 294.087469,422.163085 C294.140261,421.686625 294.123037,421.205439 294.0363,420.733551 C293.923729,420.20482 293.698586,419.754419 293.493911,419.852332 C293.289237,419.950245 292.818484,420.28315 292.624043,420.713969 C292.390184,421.156811 292.198383,421.618861 292.050954,422.094546 C291.800494,422.911879 291.672997,423.759179 291.672305,424.610916 C291.662071,426.060033 291.989551,426.960835 291.846279,427 Z" id="Path" fill="#1A2E35" fill-rule="nonzero"></path>
                        <path d="M163.841399,321.21335 C163.841399,321.21335 246.914665,307.412405 250.61575,306.838624 C264.856882,304.644162 281.109472,306.375572 286.530355,316.613035 C289.364013,324.185838 290.983127,332.159585 291.327685,340.238723 C292.011581,352.801509 297,427.292388 297,427.292388 L262.70462,433 L251.420334,350.576849 L251.420334,350.576849 L232.070096,354.210796 C233.156284,354.079934 181.84396,363.270497 166.275265,364.901244 C154.297025,366.11927 140.498415,359.656683 137.732659,348.966235 C135.922345,341.980199 132,322.53204 132,322.53204 L163.841399,321.21335 Z" id="Path" fill="#1A2E35" fill-rule="nonzero"></path>
                        <path d="M260,339 C256.510068,342.024017 253.773805,345.78638 252,350 C252.065008,349.311661 252.250931,348.639389 252.549618,348.012647 C253.762038,344.938495 255.738167,342.206786 258.300254,340.063234 C258.803182,339.620094 259.377453,339.260872 260,339 L260,339 Z" id="Path" fill="#375A64" fill-rule="nonzero"></path>
                        <path d="M92.7105551,179.944232 C91.4969766,181.929084 90.9057821,184.227452 91.0122112,186.546832 C91.0122112,188.824628 92.5892448,193.440427 96.6632484,193.671217 C95.5815651,200.183508 99.7768789,204.989959 106.772438,205 C113.767998,205.010028 121.764367,193.109294 128.234249,190.49033 L147.037342,185.563466 C148.68514,185.182161 149.372565,183.185326 149.342237,181.549728 C149.31191,179.914129 148.877215,178.117981 149.473657,176.532555 C150.292501,174.37517 152.809689,173.221221 153.67908,171.073871 C154.689999,168.635524 153.143293,165.926251 151.394403,163.959519 C149.645513,161.992788 147.522583,160.116365 146.966578,157.547572 C146.461118,155.189501 147.370945,152.530399 146.18817,150.423187 C144.732447,147.834326 140.901064,147.513227 139.111737,145.125052 C138.252456,143.971103 137.979508,142.465951 137.089899,141.301967 C135.644285,139.295097 132.854148,138.803414 130.397615,139.064307 C127.941082,139.3252 125.585641,140.208223 123.129108,140.388841 C119.752638,140.629665 116.264968,139.545956 113.019918,140.519288 C109.441265,141.592963 107.267789,144.743747 104.932566,147.784154 L101.899809,151.316244 C101.281419,151.925814 100.604225,152.473641 99.8779708,152.951842 C98.5260294,153.642525 97.2431539,154.458965 96.0465878,155.390188 C94.9275455,156.563324 94.3391274,158.138848 94.4173607,159.75254 C94.4955941,161.366231 95.2337064,162.878392 96.4610646,163.939451 C93.8074305,164.855211 92.0678616,167.38416 92.174768,170.170779 C92.174768,170.170779 91.8411648,173.261358 93.8124568,174.636063 C92.2140476,175.916521 91.7523026,178.140876 92.7105551,179.944232 Z" id="Path" fill="#1A2E35" fill-rule="nonzero"></path>
                        <path d="M105.026164,185.989835 C103.421091,181.236165 102.209333,176.34539 101.404417,171.372096 C100.60403,166.375296 100.99564,161.247478 102.54406,156.449397 C102.795168,155.737824 104.958558,150.929625 105.67325,151.000782 C106.185123,151.051608 104.861978,155.534517 105.122744,156.012288 C107.614506,160.515527 108.290566,165.933646 107.894588,171.138293 C107.456302,176.190098 106.484505,181.174762 104.99719,186" id="Path" fill="#1A2E35" fill-rule="nonzero"></path>
                        <path d="M117.937443,229.878038 C106.781393,228.488197 105.523802,210.742554 105.523802,210.742554 L105.016708,167.254649 C104.611034,154.736014 111.60892,144.090642 124.225399,144 L125.391713,144.060428 C137.112532,144.706194 146.375122,154.171529 146.689627,165.824523 C146.983741,176.681392 147.166294,188.676319 146.780904,194.477392 C145.979696,206.472319 133.789176,207.701019 133.789176,207.701019 C133.789176,207.701019 133.464636,218.467246 133.505204,222.173487 C133.64719,234.943905 121.010428,230.180177 117.886734,229.908251 L117.937443,229.878038 Z" id="Path" fill="#FFBF9D" fill-rule="nonzero"></path>
                        <path d="M133,207.44723 C127.593943,207.135384 122.388464,205.245021 118,202 C118,202 121.153242,211.427126 132.891945,210.984915 L133,207.44723 Z" id="Path" fill="#FF9A6C" fill-rule="nonzero"></path>
                        <path d="M143,175.5 C142.96657,176.349301 142.288651,177.015263 141.473529,176.999548 C141.086008,177.009466 140.711054,176.855868 140.43365,176.573566 C140.156247,176.291264 139.999883,175.904163 140,175.5 C140.037986,174.652875 140.713161,173.989608 141.526471,174.000452 C141.913992,173.990534 142.288946,174.144132 142.56635,174.426434 C142.843753,174.708736 143.000117,175.095837 143,175.5 Z" id="Path" fill="#1A2E35" fill-rule="nonzero"></path>
                        <path d="M143.967237,169.971692 C143.740278,170.180978 142.461059,169.164444 140.57318,169.064784 C138.685301,168.965123 137.251338,169.812236 137.055328,169.583017 C136.859319,169.353798 137.199756,169.094682 137.829049,168.696041 C138.675429,168.190959 139.662655,167.950791 140.65571,168.008385 C141.640125,168.055386 142.583358,168.404508 143.34826,169.004987 C143.905339,169.433527 144.080716,169.842134 143.967237,169.971692 Z" id="Path" fill="#1A2E35" fill-rule="nonzero"></path>
                        <path d="M126,175.5 C125.96657,176.349301 125.288651,177.015263 124.473529,176.999548 C124.086008,177.009466 123.711054,176.855868 123.43365,176.573566 C123.156247,176.291264 122.999883,175.904163 123,175.5 C123.037986,174.652875 123.713161,173.989608 124.526471,174.000452 C124.913992,173.990534 125.288946,174.144132 125.56635,174.426434 C125.843753,174.708736 126.000117,175.095837 126,175.5 Z" id="Path" fill="#1A2E35" fill-rule="nonzero"></path>
                        <path d="M124.971889,169.971692 C124.744779,170.180978 123.464706,169.164444 121.575566,169.064784 C119.686426,168.965123 118.251505,169.812236 118.055365,169.583017 C117.859225,169.353798 118.19989,169.094682 118.829603,168.696041 C119.676547,168.190959 120.664433,167.950791 121.658151,168.008385 C122.643074,168.056072 123.586723,168.405115 124.352499,169.004987 C124.899627,169.473391 125.075121,169.881998 124.971889,169.971692 Z" id="Path" fill="#1A2E35" fill-rule="nonzero"></path>
                        <path d="M131.067691,184.810861 C132.098335,184.551237 133.158027,184.419406 134.22203,184.418446 C134.71621,184.418446 135.189361,184.325505 135.273477,183.995051 C135.340483,183.499157 135.25248,182.994971 135.02113,182.549311 L133.769909,178.790388 C132.035022,173.451478 130.80483,169.062625 131.025634,169.000665 C131.246437,168.938705 132.834121,173.213963 134.558493,178.552874 L135.746628,182.322123 C136.023027,182.922093 136.075151,183.598576 135.89383,184.232565 C135.729594,184.570615 135.415009,184.814737 135.042159,184.893475 C134.766027,184.952495 134.483374,184.976785 134.201002,184.965762 C133.154071,185.042355 132.101499,184.99032 131.067691,184.810861 L131.067691,184.810861 Z" id="Path" fill="#1A2E35" fill-rule="nonzero"></path>
                        <path d="M125.356994,185.000654 C125.660381,185.000654 125.559252,187.177792 127.197544,188.799759 C128.835836,190.421727 130.989887,190.323756 131,190.628555 C131,190.770069 130.504467,191.02044 129.594305,190.998668 C128.416073,190.943518 127.292811,190.446788 126.41885,189.594415 C125.581886,188.772552 125.074247,187.632856 125.003042,186.415794 C124.972703,185.501396 125.174962,184.978883 125.356994,185.000654 Z" id="Path" fill="#1A2E35" fill-rule="nonzero"></path>
                        <path d="M124.987403,162.404179 C124.787816,162.840541 123.086573,162.537759 121.005164,162.671339 C118.923754,162.804919 117.270032,163.241281 117.022924,162.82273 C116.908874,162.626812 117.222511,162.226072 117.916314,161.825331 C119.777607,160.851205 122.013532,160.732989 123.979963,161.504739 C124.721287,161.825331 125.072941,162.19045 124.987403,162.404179 Z" id="Path" fill="#1A2E35" fill-rule="nonzero"></path>
                        <path d="M142.946951,163.863529 C142.621921,164.220633 141.436519,163.774254 139.983445,163.684978 C138.530371,163.595702 137.28761,163.801036 137.029498,163.399294 C136.914782,163.202887 137.134655,162.845783 137.689118,162.506535 C139.21609,161.713405 141.105072,161.861587 142.468966,162.881494 C142.946951,163.292163 143.090347,163.684978 142.946951,163.863529 Z" id="Path" fill="#1A2E35" fill-rule="nonzero"></path>
                        <path d="M105,175.549195 C104.805894,175.445278 97.1775167,172.577153 97.002821,181.056826 C96.8281253,189.5365 104.825304,187.977736 104.83501,187.728334 C104.844715,187.478932 105,175.549195 105,175.549195 Z" id="Path" fill="#FFBF9D" fill-rule="nonzero"></path>
                        <path d="M102.991329,184.332298 C102.991329,184.332298 102.835251,184.430369 102.55654,184.528439 C102.177395,184.662621 101.753951,184.662621 101.374806,184.528439 C100.41604,184.195 99.6467984,182.841627 99.63565,181.399992 C99.6332893,180.722419 99.8007747,180.052722 100.126181,179.438583 C100.310052,178.934088 100.764556,178.541607 101.341361,178.389229 C101.719856,178.30795 102.110046,178.477503 102.266681,178.791318 C102.378165,179.01688 102.266681,179.173792 102.367017,179.193406 C102.467353,179.21302 102.567688,179.065915 102.500798,178.732475 C102.455135,178.532771 102.333182,178.352819 102.155196,178.222509 C101.908708,178.053073 101.596424,177.975591 101.285618,178.006754 C100.524798,178.125112 99.88786,178.581517 99.6022047,179.21302 C99.1994954,179.897716 98.9928439,180.658528 99.0001892,181.429413 C99.0001892,183.047575 99.9255093,184.567667 101.229876,184.930528 C101.723488,185.067938 102.261427,184.999304 102.690321,184.744194 C102.969032,184.55786 103.024774,184.381333 102.991329,184.332298 Z" id="Path" fill="#FF9A6C" fill-rule="nonzero"></path>
                        <path d="M140.730748,151.652389 C142.072928,150.933695 138.12712,146.591165 134.86754,145.012063 C129.942849,142.694022 122.394348,141.206023 117.812771,142.451084 C112.292677,143.939084 107.721191,146.631655 104.865274,151.611899 C102.143581,156.689183 100.816624,162.401021 101.020382,168.162101 C100.931237,169.917322 101.310978,171.664582 102.120365,173.223324 C103.250621,175.06561 105.440494,176.260059 105.309304,178.760303 C105.23768,179.680776 105.535588,180.591812 106.136813,181.290915 C107.620275,182.920629 109.487218,181.432629 110.355093,179.924385 C112.211944,176.715569 112.454142,172.838671 112.666065,169.143978 C112.954623,166.516658 112.811439,163.859648 112.242219,161.278836 C111.858739,159.892061 111.233061,158.586265 110.920222,157.229857 C110.518564,155.829572 110.751062,154.322966 111.555991,153.110021 C111.760332,152.866874 111.986677,152.643226 112.232127,152.44194 C114.597833,150.422395 117.86643,149.84177 120.779695,150.923572 C125.401639,152.634266 133.293254,155.195245 135.382211,153.636388 C138.409685,151.399327 139.116095,149.931572 139.116095,149.931572 L140.730748,151.652389 Z" id="Path" fill="#1A2E35" fill-rule="nonzero"></path>
                        <path d="M118.82849,140.995019 C123.447187,139.388968 128.502012,139.737858 132.867817,141.964031 C135.20649,143.09973 136.991034,145.161856 137.80909,147.673908 C138.471322,150.205843 137.381186,153.29001 134.997149,154.238183 L134.834138,154.342378 C131.268271,155.51978 128.96574,154.998806 125.450814,153.70679 C122.48605,152.664841 119.857497,150.695559 116.892733,149.622352 C113.71067,148.473818 110.265407,148.325041 107,149.195153 C110.170557,145.447187 114.250129,142.619013 118.82849,140.995019 Z" id="Path" fill="#1A2E35" fill-rule="nonzero"></path>
                        <path d="M103,149.356677 C103.072305,149.420686 103.754042,148.588566 105.117514,147.60709 C105.913807,147.030723 106.773761,146.554407 107.679189,146.188218 C108.764969,145.727827 109.936604,145.523718 111.108529,145.590798 C113.257338,145.837436 115.29484,146.706542 116.985921,148.097828 C118.287417,149.164649 118.896848,150.060779 118.979482,149.99677 C119.062117,149.93276 118.886518,149.730064 118.607626,149.324672 C118.210351,148.758192 117.753022,148.239342 117.244154,147.777781 C115.541413,146.222912 113.410564,145.256817 111.149846,145.014714 C109.893334,144.93709 108.636854,145.167386 107.482932,145.686812 C106.549896,146.088636 105.674187,146.619815 104.879939,147.265707 C104.112576,147.812079 103.470804,148.525894 103,149.356677 Z" id="Path" fill="#375A64" fill-rule="nonzero"></path>
                        <path d="M128,141 C128.720395,141.316653 129.45672,141.595097 130.205957,141.834192 C133.724606,143.243528 136.717365,145.728459 138.764255,148.940268 C139.139783,149.648386 139.552277,150.335928 140,151 C139.839268,150.205667 139.534595,149.448052 139.101277,148.765191 C137.176048,145.327053 134.053377,142.732302 130.338723,141.484037 C129.595162,141.179492 128.802407,141.015418 128,141 Z" id="Path" fill="#375A64" fill-rule="nonzero"></path>
                        <path d="M103.452644,201 L102,207.192293 L136,228 L134.506722,217.656169 C131.412505,214.53002 127.927353,211.80384 124.135046,209.543164 C117.589704,205.937322 110.65155,203.071417 103.452644,201 L103.452644,201 Z" id="Path" fill="#F5F5F5" fill-rule="nonzero"></path>
                        <path d="M101.222829,208.921913 C101.222829,208.921913 90.8201023,230.939406 90.1131208,239.300607 C89.4061394,247.661808 92.2441648,275.438342 92.2441648,275.438342 L139.167531,328.893547 L186,332 C186,332 163.780584,285.443543 158.872113,276.356158 C153.963642,267.268773 137.208183,226.188953 137.208183,226.188953 C135.908611,222.784689 133.905818,219.691833 131.330137,217.111654 C124.977404,210.384367 112.665828,206.239067 101.56622,204 L101.222829,208.921913 Z" id="Path" fill="#1A2E35" fill-rule="nonzero"></path>
                        <path d="M119.093313,218.109002 C126.038831,218.925244 134.950062,224.155242 138.05488,236.35857 L141.079054,251.47417 L155.957987,281.806142 L205,295.79311 L198.629075,315 C198.629075,315 150.060849,311.180792 143.740326,309.528153 C137.419804,307.875514 111.290945,270.761676 111.290945,270.761676 C111.290945,270.761676 98.1861937,248.178969 101.553107,231.541732 C103.276886,223.197921 110.524821,217.101295 119.093313,218.109002 Z" id="Path" fill="#EFEFEF" fill-rule="nonzero"></path>
                        <path d="M119.049157,218.117964 C119.049157,218.117964 118.647471,218.117964 117.874224,218.117964 C116.73385,218.084489 115.593063,218.168675 114.469932,218.369188 C112.657721,218.73178 110.92386,219.412186 109.348431,220.37898 C107.213905,221.70356 105.415985,223.506138 104.096382,225.644636 C103.3118,226.900227 102.690847,228.251038 102.248624,229.664221 C102.122764,230.036317 102.018817,230.415479 101.937317,230.799753 C101.8291,231.188822 101.748561,231.585073 101.696305,231.985531 L101.354872,234.467624 C101.113597,238.167593 101.353263,241.883252 102.067865,245.521482 C102.874665,249.66588 104.044059,253.731266 105.562537,257.670676 C107.226672,262.088383 109.206758,266.380354 111.487411,270.513248 L111.487411,270.513248 C115.273305,275.839198 119.370506,281.436469 123.789056,287.23472 C128.338643,293.338635 133.202264,299.201742 138.36023,304.800304 C139.692519,306.262268 141.196336,307.557911 142.839033,308.659105 C143.728823,309.075755 144.683131,309.337433 145.66088,309.432875 C146.665096,309.573561 147.669312,309.744393 148.673528,309.864981 C152.690391,310.387527 156.877972,310.819632 161.075594,311.23164 C169.480882,312.065703 178.147266,312.819375 186.924113,313.562999 L198.311922,314.497552 L198.040783,314.678433 L204.387428,295.525113 L204.558145,295.856729 L155.773334,281.858526 L155.672913,281.858526 L155.672913,281.768085 L140.710095,251.420222 L140.710095,251.420222 L138.87238,242.004345 C138.432338,239.202653 137.794743,236.435629 136.96437,233.724001 C135.532516,229.415285 132.910829,225.60029 129.402623,222.720388 C127.194946,220.923247 124.651665,219.584131 121.921215,218.781196 C121.214791,218.576393 120.497289,218.411994 119.772193,218.288796 L119.029073,218.148111 L119.772193,218.238552 C120.504221,218.342292 121.228772,218.493342 121.941299,218.690755 C124.701607,219.457474 127.277584,220.777103 129.513087,222.569654 C133.075925,225.448987 135.747226,229.282654 137.215424,233.623511 C138.064978,236.34351 138.719382,239.120734 139.173645,241.934002 L141.051528,251.33983 L141.051528,251.33983 L156.004304,281.617351 L155.863714,281.496763 L204.738904,295.334183 L205,295.404525 L204.919663,295.655749 L198.58306,314.80907 L198.522807,315 L198.321964,315 L186.904029,314.075496 C178.097055,313.331872 169.450755,312.568151 161.045468,311.734088 C156.847845,311.312031 152.700433,310.889975 148.623317,310.35738 C147.619101,310.236792 146.614885,310.06596 145.610669,309.925275 C145.108561,309.854932 144.606453,309.734344 144.094303,309.633855 C143.571773,309.550304 143.070428,309.366012 142.618105,309.091211 C140.9334,307.966647 139.392237,306.640417 138.028838,305.141969 C132.86447,299.525255 127.997408,293.641915 123.447623,287.516091 C119.029073,281.707791 114.941914,276.100471 111.166062,270.754423 L111.166062,270.754423 C108.885082,266.595401 106.908294,262.276435 105.25123,257.831459 C103.73294,253.852325 102.570192,249.746323 101.776643,245.561677 C101.07097,241.898531 100.844795,238.15905 101.103818,234.437477 L101.455294,231.925237 C101.510972,231.521251 101.594862,231.121664 101.706348,230.72941 C101.790828,230.338253 101.898128,229.952382 102.027697,229.57378 C102.483131,228.138093 103.121009,226.766909 103.925665,225.493902 C105.273912,223.336069 107.106639,221.522745 109.278136,220.198099 C111.860335,218.600016 114.87389,217.841729 117.904351,218.027523 C118.617344,218.067719 119.049157,218.117964 119.049157,218.117964 Z" id="Path" fill="#EFEFEF" fill-rule="nonzero"></path>
                        <path d="M147,293.996437 C147.159875,293.27458 147.430079,292.580317 147.801539,291.936963 C149.390385,288.723163 151.567052,285.81972 154.224396,283.36955 C154.74141,282.828959 155.338685,282.367288 155.996218,282 C156.11223,282.123568 153.538869,284.358098 151.060427,287.684149 C148.581984,291.010199 147.158198,294.120005 147,293.996437 Z" id="Path" fill="#EFEFEF" fill-rule="nonzero"></path>
                        <path d="M139,230 C138.575483,229.617657 138.181865,229.20203 137.822863,228.757041 C137.463737,228.346062 137.024805,227.834845 136.466163,227.283532 C135.907522,226.73222 135.32893,226.060621 134.600701,225.409069 C132.944965,223.820964 131.192501,222.337909 129.353465,220.968496 C127.088271,219.314016 124.715391,217.813764 122.250741,216.477804 C117.734694,214.101127 112.996615,212.177278 108.10515,210.734129 C106.229712,210.172792 104.703424,209.731742 103.63602,209.481146 C103.078859,209.364557 102.531797,209.203669 102,209 C102.56879,209.051508 103.132559,209.148717 103.685899,209.290692 C104.763279,209.501193 106.309517,209.872076 108.204907,210.383294 C113.157556,211.729901 117.948029,213.619032 122.490159,216.016706 C124.977169,217.366031 127.364221,218.893611 129.632785,220.587589 C131.474565,221.988676 133.217819,223.51594 134.850094,225.158473 C135.568347,225.840095 136.14694,226.521718 136.675654,227.103103 C137.204368,227.684487 137.673227,228.205728 137.972499,228.636754 C138.350563,229.062965 138.694155,229.518829 139,230 Z" id="Path" fill="#1A2E35" fill-rule="nonzero"></path>
                        <path d="M281.813731,243.070587 C281.385241,242.942281 280.92355,242.990183 280.530228,243.203754 C280.136906,243.417326 279.844175,243.779071 279.716433,244.209408 L262.747389,301.190781 L205.849411,310.140102 C204.013824,310.429434 202.757257,312.155628 203.039635,314 L265.356467,304.2142 L265.356467,304.2142 L265.356467,304.2142 L282.927606,245.176902 C283.195229,244.286732 282.697948,243.346384 281.813731,243.070587 L281.813731,243.070587 Z" id="Path" fill="#E1E1E1" fill-rule="nonzero"></path>
                        <path d="M282.692458,243.219014 C283.109794,243.293133 283.476834,243.536677 283.704786,243.890732 C283.986955,244.305718 284.072002,244.822068 283.937622,245.304346 L283.380841,247.209217 L279.685842,259.681107 L266.37372,304.104698 L266.37372,304.044544 L266.37372,304.265108 L266.151008,304.265108 L266.151008,304.265108 L266.333227,304.104698 L266.333227,304.104698 L266.272487,304.325262 L266.049775,304.265108 L266.140885,304.265108 L204.469825,313.819539 L203.295524,314 L203.042441,314 L203.042441,313.739333 C202.799089,312.161619 203.619197,310.610324 205.067099,309.909541 C205.41674,309.746784 205.788455,309.635332 206.170537,309.578695 L207.233482,309.418285 L209.359372,309.087439 L217.741453,307.794132 L233.938711,305.297748 L263.468337,300.766161 L263.286118,300.926571 L276.345157,257.976749 L280.040157,245.945987 L280.617184,244.111296 C280.792745,243.648099 281.161804,243.282599 281.629513,243.108732 C281.993273,242.963756 282.39956,242.963756 282.763321,243.108732 C282.391464,243.02654 282.00318,243.058003 281.649759,243.198963 C281.211401,243.38641 280.875755,243.751695 280.72854,244.201526 L280.181883,246.036218 L276.608363,258.06698 L263.731542,301.06693 L263.731542,301.207289 L263.589816,301.207289 L234.070314,305.789005 L217.873056,308.295413 L209.490975,309.58872 L207.365085,309.919566 C206.672761,309.978948 205.991713,310.130705 205.340427,310.37072 C204.098826,310.969094 203.393629,312.296855 203.599222,313.649103 L203.295524,313.428539 L204.469825,313.248077 L266.151008,303.753801 L266.262364,303.753801 L265.978912,303.904185 L265.978912,303.904185 L265.978912,303.763826 L266.120638,303.763826 L266.120638,303.763826 L265.928296,304.024493 L265.928296,303.89416 L279.422636,259.530723 L283.239115,247.088909 L283.826266,245.194064 C283.960417,244.739711 283.890324,244.25014 283.633923,243.850629 C283.394251,243.54805 283.065086,243.327218 282.692458,243.219014 L282.692458,243.219014 Z" id="Path" fill="#1A2E35" fill-rule="nonzero"></path>
                        <path d="M265.978089,303.99396 C265.846174,304.070387 265.186598,303.411209 264.373121,302.599178 C263.559643,301.787148 262.91106,301.118416 263.009997,301.01333 C263.108933,300.908244 263.966382,301.433675 264.801845,302.264813 C265.637308,303.09595 266.110004,303.946194 265.978089,303.99396 Z" id="Path" fill="#375A64" fill-rule="nonzero"></path>
                        <path d="M256.784629,303.154931 C256.784629,303.080969 257.076447,302.846755 257.531684,303.154931 C257.835052,303.319918 258.018013,303.658048 257.998593,304.017824 C257.965852,304.465621 257.672359,304.844442 257.263211,304.967007 C256.854192,305.075944 256.423687,304.909733 256.177646,304.547888 C255.974753,304.262441 255.94307,303.880044 256.095937,303.561724 C256.376083,303.043987 256.796301,303.11795 256.772956,303.204239 C256.74961,303.290528 256.551174,303.413799 256.49281,303.734302 C256.455724,303.897406 256.499699,304.069234 256.609538,304.190403 C256.731654,304.336885 256.918875,304.402791 257.099792,304.362982 C257.271504,304.305205 257.400705,304.154647 257.438302,303.968516 C257.46518,303.803669 257.402,303.636866 257.274884,303.537069 C257.006411,303.228893 256.784629,303.24122 256.784629,303.154931 Z" id="Path" fill="#375A64" fill-rule="nonzero"></path>
                        <path d="M259.784629,303.154931 C259.784629,303.080969 260.076447,302.846755 260.531684,303.154931 C260.835052,303.319918 261.018013,303.658048 260.998593,304.017824 C260.965852,304.465621 260.672359,304.844442 260.263211,304.967007 C259.854192,305.075944 259.423687,304.909733 259.177646,304.547888 C258.974753,304.262441 258.94307,303.880044 259.095937,303.561724 C259.376083,303.043987 259.796301,303.11795 259.772956,303.204239 C259.74961,303.290528 259.551174,303.413799 259.49281,303.734302 C259.455724,303.897406 259.499699,304.069234 259.609538,304.190403 C259.731654,304.336885 259.918875,304.402791 260.099792,304.362982 C260.271504,304.305205 260.400705,304.154647 260.438302,303.968516 C260.46518,303.803669 260.402,303.636866 260.274884,303.537069 C260.053102,303.24122 259.819647,303.24122 259.784629,303.154931 Z" id="Path" fill="#375A64" fill-rule="nonzero"></path>
                        <polygon id="Path" fill="#1A2E35" fill-rule="nonzero" points="119.31307 377.795579 96 453.919435 104.500507 454 136 377"></polygon>
                        <path d="M219,367.7379 C218.938917,367.7379 245.515177,453.889498 245.515177,453.889498 L254,454 L237.672835,366 L219,367.7379 Z" id="Path" fill="#1A2E35" fill-rule="nonzero"></path>
                        <path d="M82.7660215,257.377259 C80.182233,254.99078 76.4345124,254.337246 73.1915358,255.707643 C66.694203,258.473573 57.1600735,264.146244 59.309036,273.107858 C61.9826279,284.292273 92.7541573,357.393292 102.691848,380.838321 C104.546566,385.212809 108.864638,388.040291 113.628352,388 L242.556016,386.993773 C245.283377,386.973761 247.870963,385.7878 249.661794,383.737 C251.452625,381.686201 252.274458,378.967812 251.918632,376.272022 L247.106166,339.761745 C245.513997,327.675269 235.718155,318.31095 223.538202,317.231987 L140.142312,309.849468 L82.7660215,257.377259 Z" id="Path" fill="url(#linearGradient-3)" fill-rule="nonzero"></path>
                        <path d="M98.6910407,370 C98.6555314,369.915705 98.6316064,369.827004 98.6199161,369.736308 L98.4573457,368.955375 L97.8781884,365.912779 L95.8460578,354.756592 L92.9197897,338.194726 L91.243282,328.41785 L90.3389839,323.245436 C89.9283947,321.429385 89.8903754,319.549162 90.2272167,317.718053 C90.4508507,316.793198 90.8855123,315.932413 91.4972983,315.20284 C92.1078605,314.496164 92.849683,313.914128 93.6818387,313.488844 C95.2805979,312.72125 96.998562,312.230814 98.7621652,312.03854 C102.216787,311.653144 105.52916,311.460446 108.689123,311.227181 C115.01921,310.791075 120.719337,310.507099 125.515165,310.314402 C130.310993,310.121704 134.192362,310.040568 136.874775,310 L139.922971,310 L140.725662,310 L141,310 L140.725662,310 L139.922971,310 L136.874775,310.121704 L125.525325,310.608519 C120.739658,310.841785 115.039531,311.166329 108.719605,311.622718 C105.569803,311.876268 102.226948,312.079108 98.8231292,312.464503 C97.1061958,312.647875 95.432965,313.121143 93.8748911,313.864097 C92.2901421,314.629171 91.1257989,316.055006 90.6946067,317.758621 C90.3952474,319.505915 90.4470557,321.295192 90.8470165,323.022312 L91.741154,328.194726 L93.4176617,337.981744 L96.2321626,354.563895 L98.0814015,365.720081 L98.5589522,368.762677 L98.6707194,369.553753 C98.7090246,369.699395 98.7159507,369.85149 98.6910407,370 Z" id="Path" fill="#1A2E35" fill-rule="nonzero"></path>
                        <path d="M246,366.5 C246,366.64 212.657625,366.76 171.505052,366.76 C130.352478,366.76 97,366.64 97,366.5 C97,366.36 130.342375,366.24 171.505052,366.24 C212.667729,366.24 246,366.38 246,366.5 Z" id="Path" fill="#1A2E35" fill-rule="nonzero"></path>
                        <ellipse id="Oval" fill="#1A2E35" fill-rule="nonzero" transform="translate(90.835781, 284.819717) rotate(-40.539152) translate(-90.835781, -284.819717) " cx="90.8357814" cy="284.819717" rx="1" ry="34.6419354"></ellipse>
                    </g>
                </g>
                <path d="M599,454.5 C599,454.64 500.279181,454.76 378.510074,454.76 C256.740966,454.76 158,454.64 158,454.5 C158,454.36 256.720819,454.24 378.510074,454.24 C500.299328,454.24 599,454.36 599,454.5 Z" id="Path" fill="#1A2E35" fill-rule="nonzero" mask="url(#mask-2)"></path>
                <g id="Group" opacity="0.6" mask="url(#mask-2)" fill="#FFFFFF" fill-rule="nonzero">
                    <g transform="translate(306.000000, 447.000000)" id="Path">
                        <path d="M0.223219512,7 L0,2.65007541 L49.859122,0 C50.9747304,0.482621228 51.7802278,1.51942666 52,2.75565611 L0.223219512,7 Z"></path>
                    </g>
                </g>
                <path d="M339.329514,445.998062 C339.122102,446.052824 338.73556,444.939316 339.272947,443.670646 C339.810334,442.401976 340.885108,441.845222 340.988814,442.036892 C341.09252,442.228561 340.451427,442.949604 340.04603,443.962714 C339.640633,444.975824 339.56521,445.961553 339.329514,445.998062 Z" id="Path" fill="#1A2E35" fill-rule="nonzero" mask="url(#mask-2)"></path>
            </g>
        </g>
    </g>
</svg>